<?xml version="1.0" standalone="no"?><!DOCTYPE svg PUBLIC "-//W3C//DTD SVG 1.1//EN" "http://www.w3.org/Graphics/SVG/1.1/DTD/svg11.dtd"><svg t="1495705460266" class="icon" style="" viewBox="0 0 1024 1024" version="1.1" xmlns="http://www.w3.org/2000/svg" p-id="2380" xmlns:xlink="http://www.w3.org/1999/xlink" width="16" height="16"><defs><style type="text/css">@font-face { font-family: uc-nexus-iconfont; src: url("chrome-extension://pogijhnlcfmcppgimcaccdkmbedjkmhi/res/font_9qmmi8b8jsxxbt9.woff") format("woff"), url("chrome-extension://pogijhnlcfmcppgimcaccdkmbedjkmhi/res/font_9qmmi8b8jsxxbt9.ttf") format("truetype"); }
</style></defs><path d="M512 51.2C257.536 51.2 51.2 234.5984 51.2 460.8c0 130.048 68.352 245.6576 174.6944 320.7168L153.6 972.8l265.6768-110.6944C449.2288 867.5328 480.256 870.4 512 870.4c254.5152 0 460.8-183.3984 460.8-409.6s-206.2848-409.6-460.8-409.6z m-204.8 460.8a51.2 51.2 0 1 1 0-102.4 51.2 51.2 0 0 1 0 102.4z m204.8 0a51.2 51.2 0 1 1 0-102.4 51.2 51.2 0 0 1 0 102.4z m204.8 0a51.2 51.2 0 1 1 0-102.4 51.2 51.2 0 0 1 0 102.4z" fill="#ffffff" p-id="2381"></path></svg>