<?xml version="1.0" standalone="no"?>
<!DOCTYPE svg PUBLIC "-//W3C//DTD SVG 1.1//EN" "http://www.w3.org/Graphics/SVG/1.1/DTD/svg11.dtd" >
<!--
2013-9-30: Created.
-->
<svg>
<metadata>
Created by iconfont
</metadata>
<defs>

<font id="iconfont" horiz-adv-x="1024" >
  <font-face
    font-family="iconfont"
    font-weight="500"
    font-stretch="normal"
    units-per-em="1024"
    ascent="896"
    descent="-128"
  />
    <missing-glyph />
    
    <glyph glyph-name="x" unicode="x" horiz-adv-x="1001"
d="M281 543q-27 -1 -53 -1h-83q-18 0 -36.5 -6t-32.5 -18.5t-23 -32t-9 -45.5v-76h912v41q0 16 -0.5 30t-0.5 18q0 13 -5 29t-17 29.5t-31.5 22.5t-49.5 9h-133v-97h-438v97zM955 310v-52q0 -23 0.5 -52t0.5 -58t-10.5 -47.5t-26 -30t-33 -16t-31.5 -4.5q-14 -1 -29.5 -0.5
t-29.5 0.5h-32l-45 128h-439l-44 -128h-29h-34q-20 0 -45 1q-25 0 -41 9.5t-25.5 23t-13.5 29.5t-4 30v167h911zM163 247q-12 0 -21 -8.5t-9 -21.5t9 -21.5t21 -8.5q13 0 22 8.5t9 21.5t-9 21.5t-22 8.5zM316 123q-8 -26 -14 -48q-5 -19 -10.5 -37t-7.5 -25t-3 -15t1 -14.5
t9.5 -10.5t21.5 -4h37h67h81h80h64h36q23 0 34 12t2 38q-5 13 -9.5 30.5t-9.5 34.5q-5 19 -11 39h-368zM336 498v228q0 11 2.5 23t10 21.5t20.5 15.5t34 6h188q31 0 51.5 -14.5t20.5 -52.5v-227h-327z" />
    

    
    <glyph glyph-name="globe" unicode="&#58956;" d="M511.67 735.676c-247.203 0-447.6-200.397-447.6-447.6 0-247.202 200.397-447.599 447.6-447.599s447.6 200.397 447.6 447.599c-0 247.203-200.398 447.6-447.6 447.6zM170.635 288.076c0 65.444 18.448 126.572 50.406 178.495 1.129-2.6 1.74-5.11 2.067-6.968 0.326-1.853-0.048-3.739-0.984-5.371-41.39-72.132-15.030-168.484 7.142-219.938 20.641-47.903 167.045-96.58 192.709-98.459 9.616-0.704 17.973-10.361 19-12.286 47.588-89.226 170.2-134.192 209.538-147.041-42.414-18.929-89.396-29.467-138.842-29.467-188.35-0-341.035 152.686-341.035 341.035zM721.803 19.459c-15.739 26.002-22.221 71.063-24.165 90.072-2.693 26.323 8.431 161.414-19.318 174.010s-120.099-24.966-155.869-48.47c-35.77-23.504-83.36-50.010-114.577-35.839-31.217 14.171-42.274 58.931-28.89 88.415 12.806 28.209 69.637 26.859 74.524 26.69 0.252-0.008 0.471-0.005 0.722 0.010l25.641 1.498c6.535 0.382 9.97 7.93 5.94 13.088-7.12 9.117-17.944 21.516-30.257 30.631-21.918 16.225-19.728 48.697-0.046 92.055 19.681 43.357 1.848 87.011-21.645 99.767-23.493 12.756-51.697-7.907-84.626-38.977-32.929-31.069-70.604-26.517-95.831-12.973-2.386 1.281-4.299 2.778-5.808 4.439 62.54 76.44 157.602 125.238 264.071 125.238 86.734 0 165.891-32.397 226.073-85.727l-0.129-0.202c0 0-1.711-45.239-11.318-61.795s-43.631-63.86-8.945-79.606c32.745-14.865 89.207 6.098 119.039-9.267 10.579-32.917 16.315-68.006 16.315-104.439 0-109.079-51.213-206.191-130.902-268.618z"  horiz-adv-x="1024" />

    
    <glyph glyph-name="yewuyibiaopan" unicode="&#59091;" d="M519.3728-63.2128c-200.2944 0-363.3152 162.9696-363.3152 363.2128 0 189.7472 148.3264 348.7232 337.7152 361.984 9.8304 0.8192 19.0464-6.912 19.7632-17.0496S506.5728 626.0416 496.384 625.3248C326.2976 613.4464 193.0752 470.5472 193.0752 300c0-180.0192 146.3808-326.5024 326.2976-326.5024 170.3936 0 313.1904 133.3248 325.0688 303.4624 0.7168 10.1376 9.5232 17.92 19.712 17.0496 10.1888-0.7168 17.8688-9.472 17.2032-19.6096C868.1472 85.1136 709.12-63.2128 519.3728-63.2128zM519.3728-63.2128c-200.2944 0-363.3152 162.9696-363.3152 363.2128 0 189.7472 148.3264 348.7232 337.7152 361.984 9.8304 0.8192 19.0464-6.912 19.7632-17.0496S506.5728 626.0416 496.384 625.3248C326.2976 613.4464 193.0752 470.5472 193.0752 300c0-180.0192 146.3808-326.5024 326.2976-326.5024 170.3936 0 313.1904 133.3248 325.0688 303.4624 0.7168 10.1376 9.5232 17.92 19.712 17.0496 10.1888-0.7168 17.8688-9.472 17.2032-19.6096C868.1472 85.1136 709.12-63.2128 519.3728-63.2128zM904.8576 281.6192l-385.4848 0c-10.24 0-18.4832 8.2432-18.4832 18.3808L500.8896 685.6384c0 10.1376 8.2944 18.3808 18.4832 18.3808 222.7712 0 404.0192-181.248 404.0192-404.0192C923.3408 289.8624 915.0464 281.6192 904.8576 281.6192zM537.856 318.3808l348.0064 0c-9.2672 187.904-160.3072 339.0464-348.0064 348.416L537.856 318.3808zM519.5776 281.0048c-4.6592 0-9.3696 1.7408-12.9536 5.2736C499.3536 293.3952 499.2512 305.0176 506.368 312.2368l271.104 274.4832c7.1168 7.2704 18.8416 7.3728 26.1632 0.256 7.3216-7.1168 7.3728-18.7392 0.256-25.9584l-271.104-274.4832C529.2032 282.848 524.3904 281.0048 519.5776 281.0048zM823.4496-212 200.5504-212C89.9584-212 0-122.0928 0-11.552L0 611.552C0 722.0928 89.9584 812 200.5504 812l622.9504 0C934.0416 812 1024 722.0928 1024 611.552l0-623.104C1024-122.0928 934.0416-212 823.4496-212zM200.5504 775.2384c-90.1632 0-163.5328-73.4208-163.5328-163.7376l0-623.104c0-90.2656 73.3696-163.6864 163.5328-163.6864l622.9504 0c90.1632 0 163.5328 73.4208 163.5328 163.6864L987.0336 611.552c0 90.2656-73.3696 163.7376-163.5328 163.7376L200.5504 775.2896z"  horiz-adv-x="1024" />

    
    <glyph glyph-name="yangshishezhihuihua" unicode="&#59089;" d="M783.936 748 729.536 629.664 607.936 610.656 695.936 518.56 675.136 388.448 783.936 449.888 892.8 388.448 872 518.56 960 610.656 838.336 629.664 783.936 748 783.936 748ZM192.050216 279.776 152.379757 193.8066 64 179.947048 127.974892 112.959206 112.910161 18.453126 192.050216 63.145165 271.089839 18.453126 256.025108 112.959206 320 179.947048 231.620243 193.8066 192.050216 279.776 192.050216 279.776ZM391.488 19.36 366.336-35.424 309.952-44.256 350.72-86.944 341.12-147.168 391.488-118.752 441.92-147.168 432.32-86.944 473.088-44.256 416.768-35.424 391.488 19.36 391.488 19.36ZM175.872 545.76 259.904 636 343.872 545.76 259.904 455.648 175.872 545.76 175.872 545.76ZM259.904 701.088 111.488 541.856 259.904 382.688 754.176-148 902.592 11.232 259.904 701.088 259.904 701.088Z"  horiz-adv-x="1024" />

    
    <glyph glyph-name="yibiaopan2" unicode="&#59092;" d="M531.8389 50.696698 788.376407-120.670357C795.632754-125.581218 803.841955-128 811.831266-128 825.171216-128 838.21798-121.696507 846.353884-109.822485 859.400649-90.83871 854.416492-64.96507 835.432716-51.918305L607.187632 94.014889 912.833747 94.014889C935.848826 94.014889 952.926895 112.632182 952.926895 135.647261L952.926895 752.803207 982.978431 752.803207C1005.99351 752.803207 1024.610803 764.090857 1024.610803 787.179233 1024.610803 810.121016 1005.99351 821.481962 982.978431 821.481962L586.371444 821.481962 586.371444 852.413056C586.224852 876.674174 583.879366 886.789082 562.989883 894.045428 543.859515 898.443214 487.787746 894.045428 475.180759 894.045428 452.238977 894.045428 444.469555 875.428135 444.469555 852.413056L444.469555 821.555259 41.632373 821.555259C18.763886 821.555259 0 810.194312 0 787.179233 0 764.164153 18.763886 752.803207 41.632373 752.803207L75.348731 752.803207 75.348731 135.647261C75.348731 112.632182 93.966024 94.014889 116.981104 94.014889L448.427563 94.014889 216.590953-51.918305C197.680474-64.96507 192.769613-90.83871 205.743081-109.822485 213.878984-121.696507 226.92575-128 240.192403-128 248.255011-128 256.464211-125.654514 263.573965-120.670357L531.8389 50.696698 531.8389 50.696698ZM882.342431 165.185722 146.592861 165.185722 146.592861 752.876503 882.342431 752.876503 882.342431 165.185722 882.342431 165.185722ZM732.964307 335.526627C732.964307 322.406566 743.665585 311.778583 756.71235 311.778583L782.512694 311.778583C795.632754 311.778583 806.260737 322.406566 806.260737 335.526627L806.260737 573.153656C806.260737 586.347013 795.632754 596.974996 782.512694 596.974996L756.71235 596.974996C743.665585 596.974996 732.964307 586.347013 732.964307 573.153656L732.964307 335.526627 732.964307 335.526627ZM586.371444 431.911433 586.371444 335.599923C586.371444 322.406566 597.072724 311.778583 610.266082 311.778583L635.846536 311.778583C648.966597 311.778583 659.667876 322.406566 659.667876 335.526627L659.667876 431.911433C659.667876 445.104791 648.966597 455.732773 635.846536 455.732773L610.266082 455.732773C597.072724 455.732773 586.371444 445.031495 586.371444 431.911433L586.371444 431.911433ZM356.000763 311.778583C283.510593 311.778583 219.889292 376.645925 219.889292 450.455431 219.889292 522.872304 275.37469 584.074823 345.079595 584.074823 350.870014 584.074823 355.341096 579.383852 355.341096 573.520137L355.341096 461.449896C355.341096 451.188395 366.482153 450.382134 366.482153 450.382134L481.630846 450.382134C487.494561 450.382134 492.258828 445.911052 492.258828 440.047337 492.258828 370.342431 429.810269 311.778583 356.000763 311.778583L356.000763 311.778583ZM521.430807 488.203092 405.842337 488.203092C400.491697 488.203092 396.167208 492.454285 396.167208 497.878221L396.167208 613.393395C396.167208 618.817331 400.564993 623.215118 405.988929 623.215118 479.798435 623.215118 531.325825 571.761023 531.325825 497.951517 531.325825 492.527581 526.854743 488.203092 521.430807 488.203092L521.430807 488.203092Z"  horiz-adv-x="1026" />

    
    <glyph glyph-name="smile" unicode="&#59141;" d="M508.912 832.72c246.005 0 446.146-200.14 446.146-446.146s-200.14-446.146-446.146-446.146-446.146 200.141-446.146 446.146 200.14 446.146 446.146 446.146M508.912 894.258c-280.386 0-507.684-227.298-507.684-507.683 0-280.388 227.298-507.684 507.684-507.684 280.387 0 507.684 227.297 507.684 507.684 0.001 280.386-227.297 507.683-507.684 507.683v0zM510.21 144.89700000000005c-96.476 0-185.024 44.32-242.934 121.602-10.187 13.597-7.429 32.886 6.175 43.073 13.582 10.202 32.88 7.437 43.073-6.175 46.176-61.628 116.772-96.963 193.686-96.963 75.404 0 145.168 34.239 191.388 93.958 10.411 13.431 29.74 15.894 43.164 5.484 13.438-10.396 15.903-29.717 5.499-43.164-57.969-74.878-145.46-117.815-240.049-117.815zM350.388 454.642c-16.992 0-30.272 13.777-30.272 30.769v92.307c0 16.992 13.28 30.769 30.272 30.769s30.272-13.777 30.272-30.769v-92.307c0-16.992-13.28-30.769-30.272-30.769zM661.254 454.642c-16.992 0-31.436 13.777-31.436 30.769v92.307c0 16.992 14.444 30.769 31.436 30.769s31.436-13.777 31.436-30.769v-92.307c0-16.992-14.444-30.769-31.436-30.769z"  horiz-adv-x="1024" />

    
    <glyph glyph-name="yibiaoban" unicode="&#59093;" d="M865.53538281 656.36654492c0-10.82251172-7.21500781-18.03751953-18.03751953-18.03751953s-18.03751953 7.21500781-18.03751953 18.03751953v16.23376758c0 39.68254297-32.46753516 72.15007813-72.15007812 72.15007812h-505.05054688c-39.68254297 0-72.15007813-32.46753516-72.15007812-72.15007812v-577.200625c0-39.68254297 32.46753516-72.15007813 72.15007812-72.15007813h505.05054688c39.68254297 0 72.15007813 32.46753516 72.15007812 72.15007813v409.45169336c0 10.82251172 7.21500781 18.03751953 18.03751953 18.03751953s18.03751953-7.21500781 18.03751953-18.03751953V95.39968750000003c0-59.52381445-48.70130273-108.22511719-108.22511719-108.22511719h-505.05054687c-59.52381445 0-108.22511719 48.70130273-108.22511719 108.22511719v577.200625c0 59.52381445 48.70130273 108.22511719 108.22511719 108.22511719h505.05054688c59.52381445 0 108.22511719-48.70130273 108.22511718-108.22511719v-16.23376758z m-586.21938476-64.93507031h90.18759765v-487.01302734h-90.18759765v487.01302734z m180.37519531-108.22511719h90.18759766v-378.78791015h-90.18759766v378.78791015z m180.37519531-90.18759765h90.18759766v-288.6003125h-90.18759766v288.6003125z"  horiz-adv-x="1024" />

    
    <glyph glyph-name="jingdianyibiaoban" unicode="&#59094;" d="M872.75039062 402.03751953v-63.13131836c0-54.11255859-30.6637832-99.20635742-75.75758203-122.65513281 45.09379883-21.64502344 75.75758203-68.54257422 75.75758203-122.65513281v-72.15007813h-36.07503906v72.15007813c0 54.11255859-45.09379883 99.20635742-99.20635742 99.20635742s-99.20635742-45.09379883-99.20635742-99.20635742v-72.15007813h-36.07503906v72.15007813c0 54.11255859 30.6637832 99.20635742 75.75758203 122.65513281-45.09379883 21.64502344-75.75758203 68.54257422-75.75758203 122.65513281V402.03751953c-10.82251172 0-18.03751953 7.21500781-18.03751954 18.03751953s7.21500781 18.03751953 18.03751954 18.03751953h270.56279296c10.82251172 0 18.03751953-7.21500781 18.03751954-18.03751953s-9.01875977-18.03751953-18.03751954-18.03751953z m-36.07503906 0h-198.41271484v-63.13131836c0-54.11255859 45.09379883-99.20635742 99.20635742-99.20635742s99.20635742 45.09379883 99.20635742 99.20635742V402.03751953z m-234.4877539-414.86294922c-10.82251172 0-18.03751953 7.21500781-18.03751954 18.03751953s7.21500781 18.03751953 18.03751954 18.03751953h270.56279296c10.82251172 0 18.03751953-7.21500781 18.03751954-18.03751953s-7.21500781-18.03751953-18.03751954-18.03751953h-270.56279296z m245.31026562 524.89181836c0-10.82251172-7.21500781-18.03751953-18.03751953-18.03751953s-18.03751953 7.21500781-18.03751953 18.03751953V672.6003125c0 39.68254297-32.46753516 72.15007813-72.15007813 72.15007813h-505.05054687c-39.68254297 0-72.15007813-32.46753516-72.15007813-72.15007813v-577.200625c0-39.68254297 32.46753516-72.15007813 72.15007813-72.15007813h306.63783203c10.82251172 0 18.03751953-7.21500781 18.03751953-18.03751953s-7.21500781-18.03751953-18.03751953-18.03751953h-306.63783203c-59.52381445 0-108.22511719 48.70130273-108.22511719 108.22511719v577.200625c0 59.52381445 48.70130273 108.22511719 108.22511719 108.22511719h505.05054687c59.52381445 0 108.22511719-48.70130273 108.22511719-108.22511719v-160.53392383z m-586.21938476 88.38384571h90.18759765v-487.01302735h-90.18759765v487.01302735z m180.37519531-108.22511719h90.18759765v-378.78791016h-90.18759765v378.78791016z"  horiz-adv-x="1024" />

    
    <glyph glyph-name="yibiaopan3" unicode="&#59095;" d="M59.733333 724.565333V43.52c0-61.610667 50.005333-111.701333 111.445334-111.701333h852.309333c61.610667 0 111.445333 49.92 111.445333 111.701333V724.48C1134.933333 786.176 1084.928 836.266667 1023.488 836.266667H171.178667C109.568 836.266667 59.733333 786.346667 59.733333 724.565333z m-59.733333 0C0 819.285333 76.544 896 171.178667 896h852.309333C1118.037333 896 1194.666667 819.029333 1194.666667 724.565333V43.52c0-94.72-76.544-171.434667-171.178667-171.434667H171.178667A171.434667 171.434667 0 0 0 0 43.434667V724.48zM627.2 452.181333H459.52a13.994667 13.994667 0 0 0-14.08 13.994667V634.026667c0 7.936 6.4 14.250667 14.250667 14.250666 107.178667 0 182.016-74.666667 182.016-181.845333a14.250667 14.250667 0 0 0-14.336-14.165333zM387.072 195.925333c-105.216 0-197.632 94.208-197.632 201.386667 0 105.216 80.554667 194.048 181.76 194.048 8.533333 0 14.933333-6.826667 14.933333-15.36v-162.730667c0-14.848 16.213333-16.042667 16.213334-16.042666h167.253333c8.533333 0 15.36-6.485333 15.36-15.018667 0-101.205333-90.624-186.282667-197.888-186.282667z m334.506667 174.506667V230.4c0-19.114667 11.690667-34.56 25.941333-34.56h27.733333c14.165333 0 25.770667 15.445333 25.770667 34.474667V370.346667c0 19.2-11.605333 34.645333-25.770667 34.645333h-27.733333c-14.250667 0-25.856-15.530667-25.856-34.56z m212.992-139.946667c0-19.114667 11.52-34.56 25.6-34.56h27.989333c14.250667 0 25.770667 15.445333 25.770667 34.474667V575.488c0 19.2-11.52 34.645333-25.770667 34.645333h-27.904c-14.165333 0-25.685333-15.445333-25.685333-34.645333V230.4z"  horiz-adv-x="1194" />

    
    <glyph glyph-name="yibiaopan1" unicode="&#59090;" d="M513.24878 889.756098c-344.663415 0-499.512195-154.84878-499.512195-499.512196s154.84878-499.512195 499.512195-499.512195 499.512195 154.84878 499.512196 499.512195-154.84878 499.512195-499.512196 499.512196z m171.082927-203.55122c0 8.741463 7.492683 14.985366 14.985366 14.985366h103.648781c8.741463 0 14.985366-7.492683 14.985366-14.985366v-538.22439c0-8.741463-6.243902-14.985366-14.985366-14.985366H699.317073c-8.741463 0-14.985366 6.243902-14.985366 14.985366V686.204878z m-156.097561-162.341463c0 8.741463 6.243902 14.985366 14.985366 14.985365h103.648781c8.741463 0 14.985366-7.492683 14.985366-14.985365v-374.634147c0-8.741463-6.243902-14.985366-14.985366-14.985366h-103.648781c-8.741463 0-14.985366 6.243902-14.985366 14.985366v374.634147z m-154.84878-62.439025c0 8.741463 6.243902 14.985366 14.985366 14.985366h103.64878c8.741463 0 14.985366-7.492683 14.985366-14.985366v-313.443902c0-8.741463-7.492683-14.985366-14.985366-14.985366h-103.64878c-8.741463 0-14.985366 6.243902-14.985366 14.985366V461.42439z m-154.848781-91.160975c0 8.741463 6.243902 14.985366 14.985366 14.985365H337.170732c8.741463 0 14.985366-7.492683 14.985366-14.985365v-222.282927c0-8.741463-7.492683-14.985366-14.985366-14.985366h-103.648781c-8.741463 0-14.985366 6.243902-14.985366 14.985366V370.263415z m604.409756-275.980488c0-8.741463-7.492683-14.985366-14.985365-14.985366H217.287805c-8.741463 0-14.985366 7.492683-14.985366 14.985366v3.746341c0 8.741463 6.243902 14.985366 14.985366 14.985366h590.673171c8.741463 0 14.985366-7.492683 14.985365-14.985366v-3.746341z"  horiz-adv-x="1024" />

    
    <glyph glyph-name="pifu" unicode="&#58881;" d="M331.536 691.7760000000001l147.92-42.336 35.264-10.096 35.248 10.112 145.584 41.744 202.464-44.368v-142.176h-128.336v-447.84H258.688v447.84H128.016V653.6l203.52 38.176m359.808 131.392L514.672 772.496 337.68 823.168 0 759.84v-383.168h130.672v-447.84h766.992v447.84h128.336V749.84L691.344 823.168z"  horiz-adv-x="1026" />

    
    <glyph glyph-name="fuzhi" unicode="&#58882;" d="M256 896v-192h128V768h512v-512h-64v-128h192V896zM256 640H0v-768h768V640H256z m384-640H128V512h512v-512z"  horiz-adv-x="1024" />

    
    <glyph glyph-name="shanchu" unicode="&#58883;" d="M576 512h128v-384h-128zM832 576v-576H192V576H64v-704h896V576zM320 512h128v-384h-128zM640 768V896H384v-128H0v-128h1024V768z"  horiz-adv-x="1024" />

    
    <glyph glyph-name="bianji" unicode="&#58884;" d="M0-128V896h640v-128H128v-768h768V512h128v-640H0z m651.008 741.504L922.512 885.008l90.496-90.496-271.504-271.504-90.496 90.496zM256 640h256v-128H256v128z m0-256h384v-128H256v128z"  horiz-adv-x="1024" />

    
    <glyph glyph-name="huihua" unicode="&#58885;" d="M896 682.512v-512h-4.96l-33.824-24.848L752 68.33600000000001l-105.232 77.328-33.824 24.848H128v512h768m128 128H0v-768h570.976L752-90.51199999999994l181.024 133.024H1024v768zM192 492h128v-128h-128zM448 492h128v-128h-128zM704 492h128v-128h-128z"  horiz-adv-x="1024" />

    
    <glyph glyph-name="dingwei" unicode="&#58886;" d="M512 768c154.704 0 320-67.248 320-256 0-107.824-169.232-315.984-320-464.88C361.2 196.032 192 404.176 192 512 192 700.752 357.296 768 512 768m0 128C264.576 896 64 759.424 64 512s448-640 448-640 448 392.576 448 640S759.424 896 512 896zM512 330c-105.872 0-192 86.128-192 192s86.128 192 192 192 192-86.128 192-192-86.128-192-192-192z m0 256c-35.296 0-64-28.704-64-64s28.704-64 64-64 64 28.704 64 64-28.704 64-64 64z"  horiz-adv-x="1024" />

    
    <glyph glyph-name="huishouzhan" unicode="&#58887;" d="M832 576v-576H192V576H64v-704h896V576zM640 768V896H384v-128H0v-128h1024V768zM518.672 511.664V576l-128-128 128-128v63.664c51.664-3.456 92.672-46.464 92.672-98.992 0-54.768-44.56-99.328-99.328-99.328s-99.328 44.56-99.328 99.328h-128c0-125.344 101.984-227.328 227.328-227.328s227.328 101.984 227.328 227.328c-0.016 123.104-98.416 223.424-220.672 226.992z"  horiz-adv-x="1024" />

    
    <glyph glyph-name="sousuo" unicode="&#58888;" d="M1009.904-37.42399999999998L793.552 178.928a441.632 441.632 0 0 1 94.352 273.12C887.904 696.848 688.752 896 443.952 896S0 696.848 0 452.048s199.152-443.952 443.952-443.952a441.376 441.376 0 0 1 258.016 83.024l218.24-218.24 89.696 89.696zM126.848 452.048c0 175.136 141.968 317.104 317.104 317.104s317.104-141.968 317.104-317.104-141.968-317.104-317.104-317.104S126.848 276.91200000000003 126.848 452.048z"  horiz-adv-x="1024" />

    
    <glyph glyph-name="daochu" unicode="&#58889;" d="M894.016401 382.86651500000005v-383.149886H127.716629V766.016401h383.149886V893.73303H0v-1021.73303h1021.73303V382.86651500000005zM638.583144 893.73303h383.149886v-127.716629H638.583144zM894.016401 893.73303h127.716629v-383.149886h-127.716629zM933.688379 896l90.311621-90.295657-361.23052-361.246484-90.311621 90.311621z"  horiz-adv-x="1026" />

    
    <glyph glyph-name="chakan1" unicode="&#58890;" d="M1024 896v-640h-128V768H128v-768h512v-128H0V896zM891.92-88.11199999999997L710.912 92.91200000000003l90.496 90.496L982.432 2.3999999999999773zM205.008 640h640v-128h-640zM205.008 384h256v-128h-256zM682 18.672000000000025c-105.872 0-192 86.128-192 192s86.128 192 192 192 192-86.128 192-192-86.128-192-192-192z m0 256c-35.296 0-64-28.704-64-64s28.704-64 64-64 64 28.704 64 64-28.704 64-64 64z"  horiz-adv-x="1024" />

    
    <glyph glyph-name="Paas" unicode="&#58891;" d="M512 896C229.232 896 0 666.768 0 384s229.232-512 512-512c282.768 0 512 229.232 512 512S794.768 896 512 896z m0-896C300.256 0 128 172.25599999999997 128 384S300.256 768 512 768s384-172.256 384-384-172.256-384-384-384zM739.776 446.336c0 102.88-106.112 186.784-240 193.056V640h-128v-512h128v125.28c133.888 6.272 240 90.176 240 193.056z m-240-65.04V511.36c69.856-5.2 112-43.488 112-65.04 0-21.536-42.144-59.824-112-65.024z"  horiz-adv-x="1024" />

    
    <glyph glyph-name="guanbi" unicode="&#58892;" d="M1023.648 805.488L933.136 896 512 474.864 90.864 896 0.352 805.488l421.136-421.136L0.352-36.799999999999955l90.512-90.496L512 293.84000000000003l421.136-421.136 90.512 90.496-421.136 421.152z"  horiz-adv-x="1024" />

    
    <glyph glyph-name="daoru" unicode="&#58893;" d="M894.016401 382.86651500000005v-383.149886H127.716629V766.016401h383.149886V893.73303H0v-1021.73303h1021.73303V382.86651500000005zM574.724829 574.441458h383.149886v-127.716629H574.724829zM574.724829 829.874715h127.716629v-383.149886h-127.716629zM662.76948 444.457859l-90.311621 90.295657L933.688379 896l90.311621-90.311621z"  horiz-adv-x="1026" />

    
    <glyph glyph-name="weitongguo" unicode="&#58894;" d="M512 896C229.232 896 0 666.768 0 384s229.232-512 512-512c282.768 0 512 229.232 512 512S794.768 896 512 896z m0-896C300.256 0 128 172.25599999999997 128 384S300.256 768 512 768s384-172.256 384-384-172.256-384-384-384zM647.76 610.2719999999999L512 474.512l-135.76 135.76-90.512-90.512L421.488 384l-135.76-135.76 90.512-90.512L512 293.48800000000006l135.76-135.76 90.512 90.512L602.512 384l135.76 135.76z"  horiz-adv-x="1024" />

    
    <glyph glyph-name="paixu1" unicode="&#58895;" d="M256 832h768v-128H256V832zM0 832h128v-128H0V832zM256 448h768v-128H256v128zM0 448h128v-128H0v128zM256 64h768v-128H256v128zM0 64h128v-128H0v128z"  horiz-adv-x="1024" />

    
    <glyph glyph-name="xiala" unicode="&#58896;" d="M512 239.24800000000005L185.488 565.76H4.464L512 58.24000000000001l507.536 507.52H838.512z"  horiz-adv-x="1024" />

    
    <glyph glyph-name="xinjian" unicode="&#58898;" d="M1024 448H576V896h-128v-448H0v-128h448v-448h128V320h448z"  horiz-adv-x="1024" />

    
    <glyph glyph-name="tongxunlu" unicode="&#58899;" d="M645.504 834h384v-128h-384zM837.328 66h192v-128h-192zM709.328 450h320v-128h-320zM569.6 402.016c43.52 45.888 70.4 107.744 70.4 175.984 0 141.392-114.608 256-256 256s-256-114.608-256-256c0-68.24 26.88-130.08 70.4-175.984-118.192-65.536-198.4-191.568-198.4-336.016v-128h768v128c0 144.448-80.208 270.48-198.4 336.016z m-185.6 303.984c70.576 0 128-57.424 128-128s-57.424-128-128-128-128 57.424-128 128 57.424 128 128 128z m-256-640c0 141.392 114.608 256 256 256s256-114.608 256-256h-512z"  horiz-adv-x="1029" />

    
    <glyph glyph-name="tongguo" unicode="&#58900;" d="M512 896c-282.768 0-512-229.232-512-512s229.232-512 512-512c282.768 0 512 229.232 512 512s-229.232 512-512 512zM512 0c-211.744 0-384 172.256-384 384s172.256 384 384 384 384-172.256 384-384-172.256-384-384-384zM432.48 116.224l-222 222 90.512 90.496 131.488-131.456 290.528 290.512 90.512-90.496z"  horiz-adv-x="1024" />

    
    <glyph glyph-name="fanhui" unicode="&#58901;" d="M1023.344 448H245.68l266.976 266.976V896l-512-512 512-512V53.024L245.68 320h777.664z"  horiz-adv-x="1024" />

    
    <glyph glyph-name="lianjie1" unicode="&#58902;" d="M304 448h384v-128h-384zM384 640V768h-384v-768h384v128h-256V640zM896.192 768h-256v-128h256v-512h-256v-128h384V768z"  horiz-adv-x="1024" />

    
    <glyph glyph-name="MAN" unicode="&#58903;" d="M896 896H640v-128h165.488l-89.2-89.2A445.968 445.968 0 0 1 448 768C200.576 768 0 567.424 0 320s200.576-448 448-448 448 200.576 448 448a445.968 445.968 0 0 1-89.2 268.288L896 677.488V512h128V896h-128zM448 0C271.552 0 128 143.55200000000002 128 320s143.552 320 320 320 320-143.552 320-320-143.552-320-320-320z"  horiz-adv-x="1024" />

    
    <glyph glyph-name="kongzhi" unicode="&#58904;" d="M192 896H64v-128H0v-128h64v-768h128V640h64V768h-64zM576 896h-128v-432h-64v-128h64v-464h128V336h64v128h-64zM1024 128h-64V896h-128v-768h-64v-128h64v-128h128v128h64z"  horiz-adv-x="1024" />

    
    <glyph glyph-name="shoucang" unicode="&#58905;" d="M719.392 705.744c96.464 0 174.944-81.536 174.944-181.776 0-49.984-21.152-96.128-64.64-141.024a301330.64 301330.64 0 0 0-318.256-297.328c-135.104 126.24-287.376 268.672-315.84 295.76-45.552 56.096-65.936 100.272-65.936 142.592 0 100.224 78.48 181.776 174.944 181.776 32.72 0 75.968-23.552 118.624-64.624L512 555.696l88.768 85.44c42.656 41.056 85.904 64.608 118.624 64.608m0 128c-80.336 0-153.168-48.208-207.392-100.4-54.224 52.192-127.056 100.4-207.392 100.4C137.296 833.744 1.664 695.056 1.664 523.9680000000001c0-91.008 47.808-166.896 99.6-229.408 3.904-4.704 410.144-384.08 410.144-384.08s404.368 377.392 408.304 381.408c61.328 62.592 102.624 139.584 102.624 232.064 0 171.104-135.632 309.792-302.944 309.792z"  horiz-adv-x="1024" />

    
    <glyph glyph-name="nv" unicode="&#58906;" d="M1024 805.488L933.488 896l-96.512-96.512L746.464 890l-90.512-90.512 90.512-90.512-30.176-30.176A445.968 445.968 0 0 1 448 768C200.576 768 0 567.424 0 320s200.576-448 448-448 448 200.576 448 448a445.968 445.968 0 0 1-89.2 268.288l30.176 30.176 90.512-90.512 90.512 90.512-90.512 90.512L1024 805.488zM448 0C271.552 0 128 143.55200000000002 128 320s143.552 320 320 320 320-143.552 320-320-143.552-320-320-320z"  horiz-adv-x="1024" />

    
    <glyph glyph-name="xianshizidua" unicode="&#58907;" d="M0 832h1024v-128H0zM0 448h384v-128H0zM0 64h384v-128H0zM652.128 142.86400000000003l-135.776 135.76-90.512-90.512 181.024-181.008 45.264-45.264 362.032 362.048-90.512 90.496z"  horiz-adv-x="1024" />

    
    <glyph glyph-name="DINGYUE" unicode="&#58908;" d="M896-128c0 494.848-401.184 896-896 896v128c565.504 0 1024-458.464 1024-1024h-128zM704-128h-128c0 318.128-257.872 576-576 576v128c388.816 0 704-315.184 704-704zM384-128h-128c0 141.376-114.624 256-256 256v128c212.064 0 384-171.904 384-384z"  horiz-adv-x="1024" />

    
    <glyph glyph-name="xiaoxi" unicode="&#58909;" d="M1.824 766.88v-768h1024v768h-1024z m816.912-128L513.808 416 208.896 638.88h609.84z m-688.912-512V538.1279999999999l346.224-253.072a63.872 63.872 0 0 1 75.52 0l346.24 253.072V126.88H129.824z"  horiz-adv-x="1024" />

    
    <glyph glyph-name="yidongweizhi" unicode="&#58910;" d="M448 512h128V768h64l-128 128-128-128h64zM384 448H128v64l-128-128 128-128v64h256zM1024 384l-128 128v-64H640v-128h256v-64zM576 256h-128v-256h-64l128-128 128 128h-64z"  horiz-adv-x="1024" />

    
    <glyph glyph-name="yingyong" unicode="&#58911;" d="M0 448h448V896H0v-448zM128 768h192v-192H128V768zM576 896v-448h448V896H576z m320-320H704V768h192v-192zM0-128h448V320H0v-448z m128 320h192v-192H128V192zM576-128h448V320H576v-448z m128 320h192v-192H704V192z"  horiz-adv-x="1024" />

    
    <glyph glyph-name="shaixuan" unicode="&#58912;" d="M754.784 766.8l-150.08-184.512A128 128 0 0 1 576 501.52v-421.216l-128 64V501.52a127.92 127.92 0 0 1-28.704 80.768l-150.08 184.512h485.568m269.12 128H0.096L320 501.52v-436.336l384-192V501.52L1023.904 894.8z"  horiz-adv-x="1024" />

    
    <glyph glyph-name="tishi" unicode="&#58913;" d="M512 768c211.744 0 384-172.256 384-384S723.744 0 512 0 128 172.25599999999997 128 384 300.256 768 512 768m0 128C229.232 896 0 666.768 0 384s229.232-512 512-512c282.768 0 512 229.232 512 512S794.768 896 512 896zM512 631.328m-64 0a64 64 0 1 1 128 0 64 64 0 1 1-128 0ZM448 503.328h128v-384h-128z"  horiz-adv-x="1024" />

    
    <glyph glyph-name="xiaoxitixing" unicode="&#58914;" d="M512-126.67200000000003a128 128 0 0 1 128 128H384a128 128 0 0 1 128-128zM945.808 200c-83.76 53.328-71.888 253.664-71.888 253.664 0 282.128-194.336 355.344-298.192 374.336 0.048 0.912 0.272 1.76 0.272 2.672a64 64 0 0 1-128 0c0-0.912 0.224-1.76 0.272-2.656-103.872-18.992-298.208-92.208-298.208-374.352 0 0 11.872-200.336-71.888-253.664-83.76-53.328-40-120 6.256-127.328 18.848-2.992 93.328-3.872 174.928-3.872 118.736 0 252.64 1.872 252.64 1.872s133.904-1.872 252.64-1.872c81.632 0 156.08 0.88 174.928 3.872 46.256 7.328 90.016 74 6.24 127.328z m-181.168-3.2c-116.432 0-249.52 1.84-250.848 1.856L512 198.67200000000003l-1.792-0.032c-1.328 0-134.336-1.84-250.848-1.84l-23.712 0.032c45.216 95.168 44.928 211.856 42.416 260.176 0.72 104.992 35.408 175.248 105.968 214.72 59.152 33.072 123.392 34.864 127.312 34.944H512.512c4.832-0.096 68.64-2.08 127.424-34.944 70.56-39.472 105.248-109.712 105.968-214.72-2.512-48.32-2.8-165.008 42.416-260.176-7.472-0.032-15.36-0.032-23.68-0.032z"  horiz-adv-x="1024" />

    
    <glyph glyph-name="diannao" unicode="&#58915;" d="M960 892.496H64a64 64 0 0 1-64-64v-640a64 64 0 0 1 64-64h384v-120.992H128v-128h768v128H576v120.992h384a64 64 0 0 1 64 64v640a64 64 0 0 1-64 64z m-64-640H128v512h768v-512z"  horiz-adv-x="1024" />

    
    <glyph glyph-name="xiugai" unicode="&#58916;" d="M435.68 398.192l-45.248-135.76 135.76 45.248 362.048 362.048-90.512 90.512zM842.976 805.488L933.488 895.984l90.496-90.496-90.496-90.512zM896 0H128V768h640V896H64a64 64 0 0 1-64-64v-896a64 64 0 0 1 64-64h896a64 64 0 0 1 64 64V544h-128v-544z"  horiz-adv-x="1024" />

    
    <glyph glyph-name="yingpan" unicode="&#58917;" d="M806.832 64m-32 0a32 32 0 1 1 64 0 32 32 0 1 1-64 0ZM678.832 64m-32 0a32 32 0 1 1 64 0 32 32 0 1 1-64 0ZM1021.552 93.15200000000004L964.72 768c0 70.688-57.904 128-129.344 128H188.624C117.2 896 59.28 838.688 59.28 768L2.448 93.15200000000004A192.288 192.288 0 0 1 0 64c0-105.872 86.128-192 192-192h640c105.872 0 192 86.128 192 192 0 9.936-0.992 19.632-2.448 29.152zM188.192 757.376l0.448 5.312V768h646.736v-5.328l0.448-5.312 42.72-507.312A190.944 190.944 0 0 1 832 256H192c-16.08 0-31.6-2.208-46.544-5.936l42.736 507.312zM832 0H192a64 64 0 0 0 0 128h640a64 64 0 0 0 0-128z"  horiz-adv-x="1024" />

    
    <glyph glyph-name="xiazhankai" unicode="&#58918;" d="M512.992 320L3.728 602.0799999999999l71.024 109.84 438.24-242.736 438.24 242.736 71.04-109.84zM512.992 5.296000000000049L3.728 287.376l71.024 109.84 438.24-242.736 438.24 242.736 71.04-109.84z"  horiz-adv-x="1024" />

    
    <glyph glyph-name="cipan" unicode="&#58919;" d="M896 896H0v-1024h1024V768l-128 128zM128 768h129.696v-127.584H128V768z m192-768v128h384v-128H320z m576 0h-64V256H192v-256H128V512.4159999999999h768V0z m0 640.416H385.696V768h457.28L896 714.976v-74.56z"  horiz-adv-x="1024" />

    
    <glyph glyph-name="HOME" unicode="&#58920;" d="M1022.656 383.456L513.6 892.512 1.344 380.27200000000005H128v-504.784h320v240h128v-240h320V380.27200000000005h123.472l3.184 3.184zM704 3.4880000000000564v240H320v-240h-64V453.904l257.6 257.6 254.4-254.4v-453.6h-64z"  horiz-adv-x="1024" />

    
    <glyph glyph-name="tuandui" unicode="&#58921;" d="M570.688 339.52c43.52 45.888 70.4 107.744 70.4 175.984 0 141.392-114.608 256-256 256s-256-114.608-256-256c0-68.24 26.88-130.08 70.4-175.984C81.296 273.98400000000004 1.088 147.952 1.088 3.504000000000019v-128h768v128c0 144.448-80.208 270.48-198.4 336.016z m-185.6 303.984c70.576 0 128-57.424 128-128s-57.424-128-128-128-128 57.424-128 128 57.424 128 128 128z m-256-640c0 141.392 114.608 256 256 256s256-114.608 256-256h-512zM824.512 460.512c43.52 45.888 70.4 107.744 70.4 175.984 0 141.392-114.608 256-256 256-74.24 0-140.896-31.792-187.664-82.288 3.024 0.112 5.984 0.464 9.04 0.464 56.32 0 108.208-18.48 150.4-49.408a128.096 128.096 0 0 0 28.208 3.232c70.576 0 128-57.424 128-128 0-42.432-20.832-79.984-52.72-103.296a254.096 254.096 0 0 0-68.848-152.64c0.256-0.144 0.48-0.304 0.736-0.432 138.032-3.84 248.832-116.672 248.832-255.632h-59.024c5.552-26 8.512-52.96 8.512-80.608 0-16.064-1.104-31.856-3.008-47.392h181.52v128c0.016 144.448-80.192 270.48-198.384 336.016z"  horiz-adv-x="1024" />

    
    <glyph glyph-name="wangye" unicode="&#58922;" d="M0 832v-896h1024V832H0z m896-768H128V448.336h768V64zM128 576.336V704h768v-127.664H128zM256 372.336h512v-64H256zM320 254.336h384v-64H320zM220.064 642.88m-32 0a32 32 0 1 1 64 0 32 32 0 1 1-64 0ZM476.064 642.88m-32 0a32 32 0 1 1 64 0 32 32 0 1 1-64 0ZM348.064 642.88m-32 0a32 32 0 1 1 64 0 32 32 0 1 1-64 0Z"  horiz-adv-x="1024" />

    
    <glyph glyph-name="shouji" unicode="&#58923;" d="M778.672 896H245.328C215.872 896 192 867.344 192 832v-896c0-35.344 23.872-64 53.328-64h533.328C808.128-128 832-99.34400000000005 832-64V832c0 35.344-23.872 64-53.328 64zM512-95.32799999999997a32 32 0 1 0-0.016 63.984A32 32 0 0 0 512-95.32799999999997zM704 0H320V768h384v-768z"  horiz-adv-x="1024" />

    
    <glyph glyph-name="shijian" unicode="&#58924;" d="M512 896C229.232 896 0 666.768 0 384c0-282.768 229.232-512 512-512 282.768 0 512 229.232 512 512C1024 666.768 794.768 896 512 896z m0-896C300.256 0 128 172.25599999999997 128 384S300.256 768 512 768s384-172.256 384-384-172.256-384-384-384zM580.8 704h-128v-256h-64v-128h64v-64h128v64h192v128h-192z"  horiz-adv-x="1024" />

    
    <glyph glyph-name="shuaxin" unicode="&#58925;" d="M512 896h-154.512l240.048-240.064 76.288 76.272C804.944 671.04 896 537.952 896 384c0-211.728-172.256-384-384-384S128 172.27200000000005 128 384c0 105.104 41.664 203.216 117.296 276.272L156.368 752.336C55.536 654.96 0 524.144 0 384c0-282.32 229.68-512 512-512s512 229.68 512 512S794.32 896 512 896z"  horiz-adv-x="1024" />

    
    <glyph glyph-name="fangxiao" unicode="&#58926;" d="M800.608 178.48000000000002a441.632 441.632 0 0 1 94.352 273.12c0 244.8-199.152 443.952-443.952 443.952S7.056 696.4 7.056 451.6s199.152-443.952 443.952-443.952a441.376 441.376 0 0 1 258.016 83.024l218.24-218.24 89.696 89.696-216.352 216.352z m-349.616-43.984c-175.136 0-317.104 141.968-317.104 317.104s141.984 317.12 317.104 317.12 317.104-141.968 317.104-317.104-141.968-317.12-317.104-317.12zM640 515.376H256v-128h384z"  horiz-adv-x="1024" />

    
    <glyph glyph-name="suoding" unicode="&#58927;" d="M944 451.568c0 34.48-25.264 62.432-56.448 62.432H832v60c0 176.736-143.264 320-320 320s-320-143.264-320-320v-60H136.448C105.264 514 80 486.048 80 451.568L64-63.567999999999984c0-34.48 25.264-62.432 56.448-62.432h783.12c31.168 0 56.448 27.952 56.448 62.432L944 451.568z m-624 122.432c0 105.872 86.128 192 192 192s192-86.128 192-192v-60H320v60z m-125.904-572l11.92 384h611.952l11.92-384H194.096z"  horiz-adv-x="1024" />

    
    <glyph glyph-name="wenben" unicode="&#58928;" d="M0 896v-1024h1024V896H0z m896-896H128V768h768v-768zM256 680h512v-128H256zM258.672 446h506.672v-128H258.672zM258.672 212h506.672v-128H258.672z"  horiz-adv-x="1024" />

    
    <glyph glyph-name="jiesuo" unicode="&#58929;" d="M815.696 670.3199999999999C774.848 799.936 653.968 894 510.848 894c-176.736 0-320-143.264-320-320v-59.664H135.28c-31.168 0-56.448-28.288-56.448-62.768l-16-515.12c0-34.48 25.264-62.432 56.448-62.432H902.4c31.168 0 56.448 27.952 56.448 62.432l-16 515.12c0 34.48-25.264 62.768-56.448 62.768H318.848v59.664c0 105.872 86.128 192 192 192 88.064 0 162.288-59.68 184.816-140.672m-502.72-623.328l11.92 384h611.952l11.92-384H192.944z"  horiz-adv-x="1024" />

    
    <glyph glyph-name="shezhi" unicode="&#58930;" d="M992.008 371.664l-33.056 19.088L992.008 409.856a64 64 0 0 1 23.424 87.424L855.96 773.488a63.968 63.968 0 0 1-87.424 23.424l-33.056-19.072V816a64 64 0 0 1-64 64H352.536a64 64 0 0 1-64-64v-38.176l-33.056 19.072a63.984 63.984 0 0 1-87.424-23.424L8.584 497.28a63.92 63.92 0 0 1-6.384-48.56A63.904 63.904 0 0 1 32.008 409.856l33.056-19.088L32.008 371.664a64 64 0 0 1-23.424-87.424l159.472-276.208a63.968 63.968 0 0 1 87.424-23.424l33.056 19.072v-38.176a64 64 0 0 1 64-64h318.944a64 64 0 0 1 64 64V3.67999999999995l33.056-19.072a63.968 63.968 0 0 1 87.424 23.424l159.472 276.208A64 64 0 0 1 992.008 371.664z m-193.072-36.32l73.648-42.512-95.472-165.36-73.648 42.512a63.968 63.968 0 0 1-96-55.424v-85.024H416.536V114.55999999999995a64 64 0 0 1-96 55.424l-73.648-42.512-95.456 165.36 73.664 42.512a64 64 0 0 1 0 110.848l-73.664 42.512 95.472 165.36 73.648-42.512a63.968 63.968 0 0 1 96 55.424V752h190.944v-85.024a64 64 0 0 1 96-55.424l73.648 42.512 95.472-165.36-73.648-42.512a64 64 0 0 1-0.032-110.848zM512.008 582.768c-106.032 0-192-85.968-192-192s85.968-192 192-192 192 85.968 192 192-85.968 192-192 192z m0-256c-35.296 0-64 28.704-64 64s28.704 64 64 64 64-28.704 64-64-28.704-64-64-64z"  horiz-adv-x="1024" />

    
    <glyph glyph-name="user" unicode="&#58931;" d="M719.504 332.86400000000003C788.224 391.6 832 478.72 832 576 832 752.448 688.448 896 512 896S192 752.448 192 576c0-97.28 43.776-184.4 112.496-243.136C161.696 257.88800000000003 64 108.17600000000004 64-64v-64h896v64c0 172.176-97.696 321.888-240.496 396.864zM320 576c0 105.872 86.128 192 192 192s192-86.128 192-192-86.128-192-192-192-192 86.128-192 192z m-121.568-576C228.16 145.87199999999996 357.472 256 512 256s283.84-110.128 313.568-256H198.432z"  horiz-adv-x="1024" />

    
    <glyph glyph-name="yun" unicode="&#58932;" d="M852.88 23.360000000000014H229.568c-2.672 0-5.296 0.16-7.872 0.48C96.88 30.272000000000048 0 131.664 0 257.34400000000005c0 107.312 72.608 197.984 171.264 225.472 10.544 87.76 85.488 156.032 176.064 156.032 25.728 0 50.656-5.552 73.344-15.84a289.808 289.808 0 0 0 236.528 121.648c160.272 0 290.656-130.384 290.656-290.656 0-30.272-8.256-63.824-18.784-96.32C985.472 327.952 1024 268.736 1024 200.688c0-91.488-69.6-167.488-159.84-176.336a64.16 64.16 0 0 0-11.28-0.992z m-618 128h611.664c0.96 0.096 1.904 0.176 2.864 0.224A49.2 49.2 0 0 1 896 200.688c0 27.2-22.128 49.328-49.328 49.328a64.368 64.368 0 0 0-52.736 27.584c-19.76 28.432-9.968 54.784-0.48 80.256 7.888 21.248 26.4 71.008 26.4 96.144 0 89.68-72.976 162.656-162.656 162.656-70.608 0-132.736-45.12-154.592-112.304a64 64 0 0 0-114.16-15.648 49.344 49.344 0 0 1-41.12 22.144 49.376 49.376 0 0 1-49.328-49.328c0-3.36 0.192-7.68 0.352-11.92 0.944-23.584 1.824-45.84-18.032-66.496a64.48 64.48 0 0 0-46.336-19.744A106.144 106.144 0 0 1 128 257.34400000000005a105.28 105.28 0 0 1 103.216-105.776c1.216-0.032 2.448-0.112 3.664-0.208z"  horiz-adv-x="1024" />

    
    <glyph glyph-name="wenjianjia" unicode="&#58933;" d="M640 832l-128-256H0v-640h1024V832H640z m256-384v-384H128V448h384a128 128 0 0 1 114.48 70.752L719.104 704H896v-256zM0 768h384v-128H0z"  horiz-adv-x="1024" />

    
    <glyph glyph-name="biaoge" unicode="&#58934;" d="M895.930005 896H0v-1023.920006h2.079838v-0.079994h998.673978v0.079994H1023.920006v1023.920006h-127.990001z m-767.940004-487.961878h226.654292v-165.987032H127.990001V408.038122z m767.940004-165.987032H690.618045V408.038122H895.930005v-165.987032z m-269.30696 0h-207.983751V408.038122h207.983751v-165.987032zM127.990001 178.05608900000004h226.654292v-178.066088H127.990001v178.066088z m290.649293 0h207.983751v-178.066088h-207.983751v178.066088z m271.978751 0H895.930005v-178.066088H690.618045v178.066088zM895.930005 472.033122H690.618045v167.986876H895.930005v-167.986876z m-269.30696 0h-207.983751v167.986876h207.983751v-167.986876z m-271.978752 0H127.990001v167.986876h226.654292v-167.986876zM895.930005 704.014999H127.990001v63.995h767.940004v-63.995z"  horiz-adv-x="1024" />

    
    <glyph glyph-name="chakan" unicode="&#58935;" d="M512 727.44c-231.744 0-430.032-142.816-511.968-345.168C81.968 179.904 280.256 37.087999999999965 512 37.087999999999965s430.032 142.8 511.968 345.168C942.032 584.624 743.744 727.44 512 727.44z m0-562.352c-155.76 0-296 83.712-370.336 217.168C216 515.7280000000001 356.24 599.44 512 599.44s296-83.712 370.336-217.168C808 248.79999999999995 667.76 165.08799999999997 512 165.08799999999997zM512 574.2719999999999c-105.872 0-192-86.128-192-192s86.128-192 192-192 192 86.128 192 192-86.128 192-192 192z m0-256c-35.296 0-64 28.704-64 64s28.704 64 64 64 64-28.704 64-64-28.72-64-64-64z"  horiz-adv-x="1024" />

    
    <glyph glyph-name="fujian" unicode="&#58936;" d="M937.328 367.456L495.328 809.456C439.584 865.216 365.664 895.92 287.2 895.92c-77.056 0-149.264-29.776-203.344-83.84-112.72-112.72-111.632-297.216 2.448-411.296a64.832 64.832 0 0 1 46.096-19.152A63.456 63.456 0 0 1 177.6 400.32a63.488 63.488 0 0 1 18.672 45.6 64.8 64.8 0 0 1-19.152 45.68c-63.456 63.472-64.128 166.08-1.504 228.72 30 29.984 70.096 46.496 112.928 46.496 43.712 0 84.912-17.104 115.968-48.176L846.512 276.64c30.88-30.88 48.032-71.664 48.336-114.88a158.528 158.528 0 0 0-46.656-114 158.704 158.704 0 0 0-113.04-46.592 162.336 162.336 0 0 0-115.552 47.968L378.112 290.64c-19.328 19.328-19.504 49.472-0.384 68.592 18.368 18.352 50.128 18.064 68.848-0.656l161.056-161.056a64.832 64.832 0 0 1 46.096-19.152 63.52 63.52 0 0 1 45.2 18.672c25.024 25.04 24.816 66-0.48 91.312L537.392 449.376c-34.176 34.176-79.36 53.008-127.216 53.008a174.528 174.528 0 0 1-124.224-51.392 174.656 174.656 0 0 1-51.472-125.296c0.24-47.376 19.008-92.08 52.816-125.888l241.488-241.488c55.632-55.632 129.392-86.256 207.696-86.256 77.072 0 149.344 29.808 203.472 83.936 54.672 54.672 84.496 127.552 84 205.2s-31.264 150.896-86.624 206.256z"  horiz-adv-x="1024" />

    
    <glyph glyph-name="jiazai" unicode="&#58937;" d="M167.568 545.408c61.168 131.088 194.256 222.176 348.224 222.176 107.472 0 207.104-43.248 280.544-121.776a388.4 388.4 0 0 0 33.088-40.576l104.464 73.968a517.76 517.76 0 0 1-44.048 54.032A514.048 514.048 0 0 1 515.776 895.584c-282.32 0-512-229.68-512-512v-154.512L243.84 469.12l-76.272 76.288zM780.16 298.88l76.272-76.304c-61.168-131.088-194.256-222.176-348.224-222.176-107.472 0-207.104 43.248-280.544 121.792a385.504 385.504 0 0 0-33.072 40.56L90.128 88.79999999999995a517.616 517.616 0 0 1 44.048-54.032 513.92 513.92 0 0 1 374.032-162.352c282.32 0 512 229.68 512 512v154.512L780.16 298.88z"  horiz-adv-x="1024" />

    
    <glyph glyph-name="fangda" unicode="&#58938;" d="M798.859947 176.19431599999996a438.957105 438.957105 0 0 1 93.780525 271.465755c0 243.317285-197.945768 441.263053-441.263053 441.263054S10.114366 690.977357 10.114366 447.660071s197.945768-441.263053 441.263053-441.263053a438.702656 438.702656 0 0 1 256.453238 82.521137l216.918155-216.918155 89.152726 89.152726-215.041591 215.04159zM451.361516 132.49262299999998c-174.075229 0-315.183351 141.108122-315.183352 315.183352S277.30219 762.859326 451.361516 762.859326s315.183351-141.108122 315.183351-315.183351S625.436745 132.49262299999998 451.361516 132.49262299999998zM512 638.2745150000001h-127.224724v-127.224725h-127.224725v-127.224724h127.224725v-127.224724h127.224724v127.224724h127.224724v127.224724h-127.224724z"  horiz-adv-x="1024" />

    
    <glyph glyph-name="jinzhi" unicode="&#58939;" d="M512 896C229.232 896 0 666.768 0 384c0-282.768 229.232-512 512-512s512 229.232 512 512C1024 666.768 794.768 896 512 896z m0-128c82.816 0 159.504-26.432 222.304-71.184L199.184 161.69600000000003A381.744 381.744 0 0 0 128 384C128 595.744 300.256 768 512 768z m0-768a381.776 381.776 0 0 0-222.304 71.184l535.12 535.12A381.776 381.776 0 0 0 896 384c0-211.744-172.256-384-384-384z"  horiz-adv-x="1024" />

    
    <glyph glyph-name="tupian" unicode="&#58940;" d="M0 896v-1024h768l256 256V896H0z m128-636.496l70.08 70.064 70.4-70.4L128 77.00800000000004V259.504zM714.976 0H230.24l319.984 414.944 289.856-289.84L714.976 0zM896 250.17600000000004L537.776 608.4 347.296 361.39200000000005l-149.2 149.216L128 440.528V768h768v-517.824zM770.336 627.344m-64 0a64 64 0 1 1 128 0 64 64 0 1 1-128 0Z"  horiz-adv-x="1024" />

    
    <glyph glyph-name="sheying" unicode="&#58941;" d="M1024 3.6639999999999873L714.224 208.01599999999996h-28.368v-176H0v720h685.856v-192h28.368L1024 764.336v-760.672zM128 160.01599999999996h429.856v176h194.768L896 241.45600000000002v285.12l-143.376-94.56H557.856v192H128v-464z"  horiz-adv-x="1024" />

    
    <glyph glyph-name="zheye" unicode="&#58942;" d="M967.104 640L739.552 867.552 512 640 284.448 867.552 56.896 640 0 583.104v-682.672h56.896L284.448 128 512-99.55200000000002 739.552 128l227.552-227.552H1024V583.104L967.104 640zM128 152.57600000000002V530.096l19.392 19.392 73.04 73.04v-377.52l-26.512-26.512L128 152.57600000000002z m220.448 92.448V622.544l73.04-73.04L448 522.976v-377.52l-73.04 73.04-26.512 26.528zM576 145.45600000000002V522.976l26.512 26.512 73.056 73.056v-377.52l-26.512-26.512L576 145.45600000000002z m320 7.12l-65.936 65.936-26.496 26.496V622.528l73.04-73.04L896 530.096v-377.52z"  horiz-adv-x="1024" />

    
    <glyph glyph-name="zhankai" unicode="&#58943;" d="M1024 807.872V896H640v-128h165.312L573.664 536.352l90.512-90.512L896 677.664V512h128V805.664zM0-38.36800000000005v-88.128h384v128H218.688l231.648 231.648-90.512 90.512L128 91.84000000000003V257.504H0V-36.15999999999997z"  horiz-adv-x="1024" />

    
    <glyph glyph-name="huatong" unicode="&#58944;" d="M376.896 319.84000000000003h270.224c31.424 0 56.896 22.816 56.896 50.96V844.864c0 28.144-25.472 50.96-56.896 50.96H376.896C345.472 895.84 320 873.024 320 844.864v-474.08c0-28.128 25.472-50.944 56.896-50.944zM448 767.84h128v-320h-128v320zM768 576.832v-320H256v320H128v-341.76c0-59.584 53.168-106.24 121.04-106.24H448v-128.672H192v-128h640v128H576v128.672h198.96c67.872 0 121.04 46.656 121.04 106.24v341.76h-128z"  horiz-adv-x="1024" />

    
    <glyph glyph-name="yuechi" unicode="&#58945;" d="M886.96 848H634.832l-137.04-137.024v-99.568L0 113.64800000000002v-190.08h426.672v99.568h99.568v99.552h99.552V222.24h62.064l99.552 99.552h99.552L1024 458.832V710.976L886.96 848zM896 511.856l-62.064-62.08h-99.552l-99.552-99.552h-137.04v-99.568H398.24v-99.552h-99.568v-99.568H128v9.04l497.776 497.76v99.568L687.84 720h146.096L896 657.936v-146.08zM761.968 591.7760000000001m-64 0a64 64 0 1 1 128 0 64 64 0 1 1-128 0Z"  horiz-adv-x="1024" />

    
    <glyph glyph-name="qianbao" unicode="&#58946;" d="M924.432 490V672h-99.552V895.984L184.592 896 0 688.336V-128h924.432V138H1024v352h-99.568zM242.064 768l454.832-0.016V672H156.736l85.328 96z m554.368-768H128V544h668.432v-54H597.328v-352h199.104V0zM896 266H725.328v96H896v-96z"  horiz-adv-x="1024" />

    
    <glyph glyph-name="shoutixiang" unicode="&#58947;" d="M761.665304 638.873654V896h-511.249103v-257.126346H0v-766.873654h1022.498206v766.873654H761.665304z m-383.436827 129.31407h255.624551v-127.812275h-255.624551v127.812275z m255.624551-257.126345v-511.249103h-255.624551v511.249103h255.624551zM127.812276 511.061379h122.603925v-511.249103H127.812276v511.249103z m766.873654-511.249103h-133.020626v511.249103H894.68593v-511.249103z"  horiz-adv-x="1024" />

    
    <glyph glyph-name="suoxiao" unicode="&#58948;" d="M572.832 533.552v-88.128h384v128H791.52L1023.168 805.072 932.656 895.584l-231.824-231.84V829.424h-128v-293.68zM451.168 234.44799999999998v88.128h-384v-128H232.48L0.832-37.072l90.512-90.512 231.824 231.84v-165.68h128V232.25599999999997z"  horiz-adv-x="1024" />

    
    <glyph glyph-name="rili" unicode="&#58949;" d="M220.975399 427.626857h126.271657v-126.271656h-126.271657zM441.950798 427.626857h126.271657v-126.271656h-126.271657zM662.926198 427.626857h126.271656v-126.271656h-126.271656zM220.975399 200.085332h126.271657v-126.271657h-126.271657zM441.950798 200.085332h126.271657v-126.271657h-126.271657zM662.926198 200.085332h126.271656v-126.271657h-126.271656zM378.81497 895.984216h252.543313v-126.271657H378.81497zM883.901597 895.984216h-126.271657v-126.271657h126.271657v-140.082619H126.271657V769.712559h126.271656v126.271657H0v-1023.984216h1010.173254V895.984216h-126.271657z m0-897.696775H126.271657v505.086626h757.62994v-505.086626z"  horiz-adv-x="1024" />

    
    <glyph glyph-name="xiangji" unicode="&#58950;" d="M732.176 706.768C687.44 781.696 606.032 832 512.704 832c-93.312 0-174.72-50.304-219.456-125.232H0.704V-64h1024V706.768H732.176zM896.704 64h-768V578.768H365.904l37.248 62.368C426.656 680.496 467.6 704 512.704 704c45.104 0 86.064-23.504 109.568-62.848l37.248-62.368H896.72V64zM512.704 512c-105.872 0-192-86.128-192-192s86.128-192 192-192 192 86.128 192 192-86.112 192-192 192z m0-256c-35.296 0-64 28.704-64 64s28.704 64 64 64 64-28.704 64-64-28.704-64-64-64z"  horiz-adv-x="1024" />

    
    <glyph glyph-name="biaodan" unicode="&#58951;" d="M313.22165 647.339385h397.5567v-127.780377h-397.5567zM313.22165 448.577008h397.5567v-127.780377h-397.5567zM100.259679 895.808329v-1022.243019h140.047293l72.914678 72.914678 74.479988-74.479988h49.818374L512-53.52001199999995l74.49596-74.479988h49.818375l74.448042 74.479988 72.930651-72.914678h140.047293v1022.243019H100.259679z m695.700265-853.812509l-85.229512 85.213539-99.349243-99.397161L512 127.20935899999995l-99.397161-99.397161-99.397161 99.397161-85.181594-85.181594V768.027952h567.919887v-726.032132z"  horiz-adv-x="1024" />

    
    <glyph glyph-name="changbiao" unicode="&#58952;" d="M298.672 896v-248.896H0v-588.272L186.816-128H1024V896H298.672z m0-896H239.84L128 111.84000000000003V519.104h170.672V0zM896 0H426.672V768H896v-768zM512 696.896h298.672v-128H512zM512 497.776h298.672v-128H512zM512 298.672h298.672v-128H512z"  horiz-adv-x="1024" />

    
    <glyph glyph-name="biaoqian" unicode="&#58953;" d="M768 768v-656.832l-184.992 123.328L512 281.84000000000003l-71.008-47.328L256 111.168V768h512m128 128H128v-1024l384 256 384-256V896z"  horiz-adv-x="1024" />

    
    <glyph glyph-name="dianhua" unicode="&#58954;" d="M474.512-128H165.488L0 37.488000000000056V261.18399999999997L122.816 384h223.696l42.656-42.656h32.32l133.168 133.168v32.32L512 549.488V773.184L634.816 896h223.696L1024 730.512v-309.024L474.512-128z m-256 128h202.976L896 474.512V677.488L805.488 768H687.84L640 720.16v-117.648l42.656-42.656v-138.368L474.512 213.34400000000005h-138.368L293.488 256H175.84L128 208.15999999999997v-117.648L218.512 0z"  horiz-adv-x="1024" />

    
    <glyph glyph-name="gongjuxiang" unicode="&#58955;" d="M766.873654 638.873654V896H255.624551v-257.126346H0v-766.873654h1022.498206v766.873654H766.873654zM383.436827 768.187724h255.624552v-127.812275H383.436827v127.812275z m511.249103-257.126345v-191.718414H575.155241v63.906138h-127.812276v-63.906138H127.812276v191.718414h766.873654z m-766.873654-511.249103v191.718413h319.530689v-63.906138h127.812276v63.906138h319.530689v-191.718413H127.812276z"  horiz-adv-x="1024" />

    
    <glyph glyph-name="kongbaiwendang" unicode="&#58981;" d="M649.648 896H64v-1024h896V570.1600000000001L649.648 896z m128.032-320H640v144.544L777.68 576zM192 0V768h320v-320h320v-448H192z"  horiz-adv-x="1024" />

    
    <glyph glyph-name="kuangjia" unicode="&#58982;" d="M1024 512V896H640v-109.328H384V896H0v-384h128v-256H0v-384h384v146.672h256V-128h384V256h-128V512h128zM768 768h128v-128h-128V768zM128 768h128v-128H128V768z m128-768H128v128h128v-128z m640 0h-128v128h128v-128z m-128 256h-128v-109.328H384V256h-128V512h128v146.672h256V512h128v-256z"  horiz-adv-x="1024" />

    
    <glyph glyph-name="liucheng" unicode="&#58983;" d="M896 256v128h-0.672v64H573.328v64h128V896h-384v-384h128v-64H114v-192H0v-384h384V256h-142v64H768v-64h-128v-384h384V256h-128zM445.328 768h128v-128h-128V768zM256 0H128v128h128v-128z m640 0h-128v128h128v-128z"  horiz-adv-x="1024" />

    
    <glyph glyph-name="dayin" unicode="&#58984;" d="M1021.00081 701.5631579999999H829.563158V896H191.437652V701.5631579999999H0v-510.500405h191.437652v-319.062753h638.125506V191.06275300000004h191.437652V701.5631579999999zM319.062753 768.3589460000001h382.875304V701.5631579999999H319.062753V768.3589460000001zM701.938057-0.3748990000000276H319.062753V382.500405h382.875304v-382.875304z m191.437652 319.062753h-63.812551V510.125506H191.437652v-191.437652H127.625101V573.9380570000001h765.750608v-255.250203zM382.875304 288.775721h255.250202v-63.81255H382.875304zM382.875304 159.82650999999998h255.250202v-63.812551H382.875304z"  horiz-adv-x="1024" />

    
    <glyph glyph-name="moban" unicode="&#58985;" d="M0 894.883958v-382.642813h1020.380837v382.642813H0z m892.833232-255.095209H127.547605v127.547605h765.285627v-127.547605zM1.323306-123.26479500000005h382.642814v510.190418h-382.642814v-510.190418z m127.547605 382.642814h127.547605v-255.09521h-127.547605v255.09521zM508.867112-0.4523950000000241h510.190418v-127.547605h-510.190418zM508.867112 371.73151499999994h510.190418v-127.547605h-510.190418zM508.867112 185.63955999999996h510.190418v-127.547605h-510.190418z"  horiz-adv-x="1024" />

    
    <glyph glyph-name="dingdan" unicode="&#58986;" d="M0 896v-1024h787.408L1024 108.59199999999998V896H0z m896-734.368L734.368 0H128V768h768v-606.368zM263.104 248.89599999999996H512v-128H263.104zM263.104 448h497.776v-128H263.104zM263.104 647.104h497.776v-128H263.104z"  horiz-adv-x="1024" />

    
    <glyph glyph-name="erweima" unicode="&#58987;" d="M134.032902 768.291335h255.417329v127.708665h-383.125994v-303.308078h127.708665zM896.293994 896h-255.417329v-127.708665h255.417329v-175.599413h127.708664v303.308078zM896.293994-0.2913350000000037h-255.417329v-127.708665h383.125993v319.271662h-127.708664zM134.032902 191.271662h-127.708665v-319.271662h383.125994v127.708665h-255.417329zM0.002658 451.845228h1021.669317v-127.708665h-1021.669317z"  horiz-adv-x="1026" />

    
    <glyph glyph-name="fenxiang" unicode="&#58988;" d="M811.2 576c-44.8 0-86.4-16-118.4-41.6l-220.8 132.8c1.6 11.2 3.2 24 3.2 36.8 0 105.6-86.4 192-192 192s-192-86.4-192-192 86.4-192 192-192c46.4 0 89.6 17.6 123.2 44.8L624 427.2c-3.2-14.4-4.8-27.2-4.8-43.2 0-9.6 1.6-19.2 1.6-28.8l-227.2-136c-32 22.4-70.4 36.8-112 36.8-105.6 0-192-86.4-192-192s86.4-192 192-192 192 86.4 192 192c0 17.6-3.2 35.2-6.4 51.2l212.8 128c33.6-32 80-51.2 129.6-51.2 105.6 0 192 86.4 192 192s-84.8 192-190.4 192z m-528 64c-35.2 0-64 28.8-64 64s28.8 64 64 64 64-28.8 64-64-28.8-64-64-64z m0-640c-35.2 0-64 28.8-64 64s28.8 64 64 64 64-28.8 64-64-28.8-64-64-64z m528 320c-35.2 0-64 28.8-64 64s28.8 64 64 64 64-28.8 64-64-28.8-64-64-64z"  horiz-adv-x="1024" />

    
    <glyph glyph-name="duankai" unicode="&#58989;" d="M538.512 120.89599999999996H0V647.104h312.896v-128H128v-270.208h357.488l53.104 53.072 90.496-90.496zM1024 120.89599999999996H760.896v128H896V519.104H588.288l-66.928-66.912-90.512 90.496 104.432 104.416H1024zM306.816 424.88l90.512 90.512 90.512-90.512-90.512-90.512zM568.16 334.36800000000005l90.512 90.512 90.512-90.512-90.512-90.512z"  horiz-adv-x="1024" />

    
    <glyph glyph-name="guanlian" unicode="&#58990;" d="M597.328 360.75199999999995l-111.84-111.856H128V519.104h184.896v128H0v-526.208h538.512l186.816 186.816v126.064h-128zM535.28 647.104L298.672 410.512v-76.272h128v23.248l161.616 161.616H896v-270.208h-135.104v-128H1024V647.104z"  horiz-adv-x="1024" />

    
    <glyph glyph-name="hongqi" unicode="&#58991;" d="M864.496 576L992 896H64v-1024h128V256h800l-127.504 320z m-118.912-47.376L803.216 384H192V768h611.216l-57.632-144.624L726.72 576l18.864-47.376z"  horiz-adv-x="1024" />

    
    <glyph glyph-name="yunying" unicode="&#58957;" d="M1024 770H576V891.328h-128v-121.328H0v-640h429.968L265.072-34.89599999999996l90.512-90.496L512 30.991999999999962l156.416-156.384 90.496 90.496-164.88 164.896H1024v640z m-128-512H128v384h768v-384zM377.504 516.0799999999999l231.984-232 170.304 170.288-45.248 45.264-125.056-125.056-231.984 232-133.296-133.28 45.248-45.248z"  horiz-adv-x="1024" />

    
    <glyph glyph-name="sousuorizhi" unicode="&#58958;" d="M793.354173 179.43183699999997a441.321696 441.321696 0 0 1 94.285705 272.928097c0 244.627996-199.01207 443.640066-443.640065 443.640066S0.359747 696.98793 0.359747 452.359934s199.01207-443.640066 443.640066-443.640065a441.065876 441.065876 0 0 1 257.83471 82.965665l218.086657-218.086658 89.632977 89.632977-216.199984 216.199984z m-349.35436-43.953095c-175.012944 0-316.881193 141.868249-316.881193 316.881192S268.986869 769.241127 443.999813 769.241127s316.881193-141.868249 316.881193-316.881193-141.868249-316.881193-316.881193-316.881192zM254.533031 617.475837h383.73019v-63.955031h-383.73019zM254.533031 489.565774h383.73019v-63.955032h-383.73019zM254.533031 361.655711h383.73019v-63.955032h-383.73019z"  horiz-adv-x="1024" />

    
    <glyph glyph-name="anquan" unicode="&#58959;" d="M522.64688 761.07035l319.246777-89.373136V295.17756499999996c-24.055245-33.808234-66.977974-91.288616-118.552291-147.731446-106.53265-116.556998-176.272108-147.667597-200.694486-147.667596s-94.161837 31.094636-200.694486 147.667596c-51.590279 56.44283-94.528971 113.939175-118.552291 147.715484V671.697214l319.246777 89.373136m0 132.599149l-446.945488-125.128775V255.43134199999997s250.369285-383.35153 446.945488-383.35153 446.945488 383.35153 446.945488 383.35153V768.556687l-446.945488 125.112812z"  horiz-adv-x="1024" />

    
    <glyph glyph-name="CDP" unicode="&#58960;" d="M335.52 37.696000000000026C150.512 37.696000000000026 0 188.20799999999997 0 373.23199999999997c0 184.992 150.512 335.52 335.52 335.52 184.72 0 335.056-150.048 335.52-334.672l2.24-90.4c0-58.16 36.304-117.008 105.696-117.008 64.512 0 117.008 52.496 117.008 117.008s-52.496 117.008-117.008 117.008c-15.408 0-30.336-2.928-44.384-8.704l-48.64 118.4a243.648 243.648 0 0 0 93.024 18.304c135.12 0 245.024-109.92 245.024-245.024s-109.904-245.008-245.008-245.008c-132.96 0-233.296 104.912-233.696 244.16l-2.24 90.416c0 114.416-93.088 207.52-207.52 207.52S128 487.648 128 373.23199999999997c0-114.432 93.088-207.536 207.52-207.536 56.384 0 109.136 22.24 148.528 62.592 0 0 73.472-106.992 63.824-114.912-59.744-49.04-133.856-75.68-212.352-75.68z"  horiz-adv-x="1024" />

    
    <glyph glyph-name="shujubiao" unicode="&#58961;" d="M1.00669 255.25146199999995h127.750487v-383.251462h-127.750487zM298.649357 383.00194899999997h127.750487v-511.001949h-127.750487zM596.276055 255.25146199999995h127.750487v-383.251462h-127.750487zM893.918721 510.752437h127.750488v-638.752437h-127.750488zM657.388694 505.913887L369.630721 768.377263 1.00669 536.206721v-150.969138l354.395821 223.19607 307.511392-280.476195 358.755306 370.572226V882.186979z"  horiz-adv-x="1024" />

    
    <glyph glyph-name="lianjie" unicode="&#58962;" d="M914.866968 231.49854400000004c2.51298 18.349496 3.967031 37.046699 3.967031 56.075805 0 163.169847-94.7188 304.35507-231.905381 372.300359 3.777372 14.919831 5.990059 30.456053 5.990059 46.529643 0 104.73911-84.919758 189.658869-189.658869 189.658869s-189.658869-84.919758-189.658869-189.658869c0-15.962955 2.181077-31.372738 5.89523-46.181935-137.202387-67.94529-231.794747-209.446611-231.794747-372.648067 0-20.07223 1.485661-39.796753 4.283129-59.110347-54.890438-33.237717-91.668453-93.327968-91.668453-162.158333 0-104.73911 84.919758-189.658869 189.658869-189.658869 45.691982 0 87.606592 16.168419 120.338552 43.084173a412.666088 412.666088 0 0 1 192.946289-47.730815c70.964027 0 137.771363 17.985983 196.265319 49.48516A188.805404 188.805404 0 0 1 821.855098-123.35320000000002c104.73911 0 189.658869 84.919758 189.658868 189.658869 0 70.916612-38.990702 132.650574-96.646998 165.192875zM503.259808 769.623974c34.865622 0 63.219623-28.354001 63.219623-63.219623s-28.354001-63.219623-63.219623-63.219623-63.219623 28.354001-63.219623 63.219623 28.369806 63.219623 63.219623 63.219623zM126.755344 66.30566899999997c0 34.865622 28.354001 63.219623 63.219623 63.219623s63.219623-28.354001 63.219623-63.219623-28.354001-63.219623-63.219623-63.219623-63.219623 28.354001-63.219623 63.219623z m249.037899-38.089823c2.51298 12.312022 3.840592 25.050776 3.840593 38.089823 0 95.793534-71.106271 174.802257-163.359506 187.620036a288.091822 288.091822 0 0 0-2.133662 33.648644c0 119.564112 72.93964 222.406633 176.667236 266.360076a188.584135 188.584135 0 0 1 224.935418 0c103.727596-43.953443 176.667236-146.811769 176.667236-266.360076 0-11.711435-0.979904-23.169992-2.38654-34.486304C700.457617 237.89953000000003 632.196229 160.17100400000004 632.196229 66.30566899999997c0-12.169777 1.264392-24.023457 3.445469-35.545233a286.226843 286.226843 0 0 0-132.366085-32.321032c-45.755202 0-89.013229 10.763141-127.48237 29.776442zM821.855098 3.0860460000000103c-34.865622 0-63.219623 28.354001-63.219623 63.219623s28.354001 63.219623 63.219623 63.219623 63.219623-28.354001 63.219623-63.219623-28.354001-63.219623-63.219623-63.219623z"  horiz-adv-x="1024" />

    
    <glyph glyph-name="gongsi" unicode="&#58963;" d="M768 384V896h-768v-1024H1026.672V384H768z m-128-384h-512V768h512v-768zM898.672 0h-128V256h128v-256zM188.848 704.096h128v-128h-128zM444.848 704.096h128v-128h-128zM188.848 448.096h128v-128h-128zM444.848 448.096h128v-128h-128zM188.848 192.096h128v-128h-128zM444.848 192.096h128v-128h-128z"  horiz-adv-x="1026" />

    
    <glyph glyph-name="EDAS" unicode="&#58964;" d="M511.545217 880.701625l-511.544405-191.829152 511.544405-207.814915 511.544406 207.814915-511.544406 191.829152zM351.511747 684.108716l160.03347 60.010553 160.03347-60.010553-160.03347-65.014097-160.03347 65.014097zM575.488268-128l447.601355 261.415177V576.972134l-447.601355-175.843389v-529.128745z m127.886101 441.974367l191.829153 75.356885v-182.509453l-191.829153-112.04421V313.97436700000003zM0.000812 133.41517699999997l447.601355-261.415177v513.142982l-447.601355 191.829152v-443.556957z m127.886101 249.617684l191.829152-82.214777V94.79357400000004l-191.829152 112.044211V383.032861z"  horiz-adv-x="1024" />

    
    <glyph glyph-name="jiaohuan" unicode="&#58965;" d="M888.816 257.504h-262.72L384 644.896v1.936h-384v-128h311.84l241.472-386.4h0.016v-2.928h335.488v-71.776l135.76 135.776-135.76 135.76zM545.248 476.736l48.4 33.76h295.168v-71.76l135.76 135.76-135.76 135.776v-71.776H553.328v-0.048l-81.312-56.736zM388.08 291.264l-48.4-33.76H0v-128h384v2.848l77.312 53.936z"  horiz-adv-x="1024" />

    
    <glyph glyph-name="shenhe" unicode="&#58966;" d="M576 385.84v136.496c74.528 26.384 128 97.28 128 180.848 0 106.032-85.968 192-192 192s-192-85.968-192-192c0-83.568 53.472-154.464 128-180.848v-136.496H0v-320h1024v320H576zM512 767.168c35.296 0 64-28.704 64-64s-28.704-64-64-64-64 28.704-64 64 28.704 64 64 64z m384-573.328H128v64h768v-64zM0 0.8319999999999936h1024v-128H0z"  horiz-adv-x="1024" />

    
    <glyph glyph-name="chexiao" unicode="&#58967;" d="M896 528.4639999999999H259.584l117.024 117.024L286.096 736 14.576 464.464l90.496-90.496 181.024-181.024 90.512 90.512-117.024 117.008H896v-384h128v512z"  horiz-adv-x="1024" />

    
    <glyph glyph-name="guanji" unicode="&#58968;" d="M704 860.176v-142.304c114.656-66.496 192-190.512 192-332.336 0-211.744-172.256-384-384-384s-384 172.256-384 384c0 141.824 77.344 265.84 192 332.336V860.176C132.4 784.208 0 600.384 0 385.536c0-282.768 229.232-512 512-512 282.768 0 512 229.232 512 512 0 214.848-132.4 398.672-320 474.64zM448 894.464h128v-384h-128z"  horiz-adv-x="1024" />

    
    <glyph glyph-name="yuanhuantu" unicode="&#58969;" d="M3.296 382.99199999999996c0-261.072 195.456-476.352 448-507.872v129.312c-181.376 30.576-320 188.64-320 378.56s138.624 348 320 378.56V890.88c-252.544-31.52-448-246.8-448-507.888zM829.136 787.344A509.568 509.568 0 0 1 579.296 890.864v-129.312a382.032 382.032 0 0 0 158.208-65.84l91.632 91.632zM919.632 696.832l-91.504-91.504a381.664 381.664 0 0 0 71.152-222.336c0-189.92-138.64-348-320-378.56v-129.312c252.544 31.52 448 246.8 448 507.872a509.28 509.28 0 0 1-107.648 313.84z"  horiz-adv-x="1027" />

    
    <glyph glyph-name="bingtu" unicode="&#58970;" d="M448 4c-176.448 0-320 143.552-320 320s143.552 320 320 320v128c-247.024 0-448-200.976-448-448s200.976-448 448-448 448 200.976 448 448h-128c0-176.448-143.552-320-320-320zM569.328 893.328h-64v-512h512v64c0 247.024-200.976 448-448 448z m64-384V758.912c125.184-25.536 224.048-124.384 249.584-249.584H633.328z"  horiz-adv-x="1025" />

    
    <glyph glyph-name="tiaoxingtu" unicode="&#58971;" d="M271.812435 878.577151h511.496495v-127.874124h-511.496495zM271.812435 580.646426h383.622371v-127.874124h-383.622371zM271.812435 282.71570199999996h639.370619v-127.874124h-639.370619zM127.874124-0.12587599999994836v895.118867H0v-1022.992991h1022.992991v127.874124z"  horiz-adv-x="1024" />

    
    <glyph glyph-name="zhexiantu" unicode="&#58972;" d="M128 0V896H0v-1024h1024v128zM416.672 472.816l176-176L973.92 678.08l-90.512 90.496-290.736-290.736-176 176L149.408 386.576l90.512-90.496z"  horiz-adv-x="1024" />

    
    <glyph glyph-name="gongzuoliu" unicode="&#58973;" d="M960 894.16h-896a64 64 0 0 1-64-64v-640a64 64 0 0 1 64-64h384v-120.992h-320v-128h768v128h-320v120.992h384a64 64 0 0 1 64 64v640a64 64 0 0 1-64 64z m-64-640h-768v512h768v-512zM256 646.336h128v-340.672h-128zM448 561.328h128v-255.664h-128zM640 478.336h128v-172.672h-128z"  horiz-adv-x="1024" />

    
    <glyph glyph-name="houtui" unicode="&#58974;" d="M686.432-64.72000000000003l85.072 89.696-341.472 358.304L771.504 741.6l-85.072 89.68-341.872-358.304-85.056-89.696 85.056-89.68z"  horiz-adv-x="1024" />

    
    <glyph glyph-name="gengduo" unicode="&#58975;" d="M512 768c211.744 0 384-172.256 384-384S723.744 0 512 0 128 172.25599999999997 128 384 300.256 768 512 768m0 128C229.232 896 0 666.768 0 384s229.232-512 512-512c282.768 0 512 229.232 512 512S794.768 896 512 896zM192 448h128v-128h-128zM448 448h128v-128h-128zM704 448h128v-128h-128z"  horiz-adv-x="1024" />

    
    <glyph glyph-name="zhuzhuangtu" unicode="&#58976;" d="M0 0v-128h1024v128M197.776 356.336h128v-288h-128v288z m250.224 368h128v-656h-128v656z m250.224-208h128v-448h-128v448z m0 0"  horiz-adv-x="1024" />

    
    <glyph glyph-name="shujuliu" unicode="&#58977;" d="M998.090218 567.558935c0 130.820017-97.419502 238.808088-222.30769 253.102038V895.328472h-511.640253v-287.797642h511.640253v83.54126c55.257147-13.030838 96.588087-63.411414 96.588086-123.529144s-41.346928-110.498306-96.588086-123.529143v83.54126h-511.640253v-74.251792c-126.359154-12.838973-225.377531-121.626481-225.377531-253.517745s99.002389-240.678773 225.377531-253.533734v-74.251792h511.640253v287.797642h-511.640253v-84.340698c-56.808057 11.84767-99.657928 63.091639-99.657928 124.328582s42.849871 112.496901 99.657928 124.328581v-84.356686h511.640253v74.683488c124.888188 14.29395 222.30769 122.298009 222.30769 253.118026z m-350.217753 167.881958h-255.820127v31.977516h255.820127v-31.977516z m-255.820127-703.553314h255.820127v-31.977516h-255.820127v31.977516z m255.820127 335.795894h-255.820127v31.977515h255.820127v-31.977515z"  horiz-adv-x="1024" />

    
    <glyph glyph-name="ditu" unicode="&#58978;" d="M901.343071 639.0052900000001C885.763276 797.615592 749.380148 896.015979 583.323502 896.015979c-166.040666 0-302.439773-98.384408-318.019568-256.99471H0v-767.00529h1022.67372v767.00529h-121.330649zM583.323502 768.165785c95.444221 0 191.751323-49.407924 191.751323-159.792769 0-23.841081-27.244667-97.66534-129.352246-223.038746a1804.69953 1804.69953 0 0 0-62.399077-72.434062 1830.106581 1830.106581 0 0 0-60.785169 70.48459c-103.369942 126.507935-130.950174 200.955386-130.950174 224.988218-0.015979 110.384845 96.291122 159.792769 191.735343 159.792769zM894.839505-0.16578500000002805H127.834215v511.33686h159.888644c74.143845-172.176708 295.616622-382.176365 295.616623-382.176365s221.472777 209.983677 295.616622 382.176365H894.839505v-511.33686zM575.253968 612.7034m-63.917108 0a63.917108 63.917108 0 1 1 127.834215 0 63.917108 63.917108 0 1 1-127.834215 0Z"  horiz-adv-x="1024" />

    
    <glyph glyph-name="houtuidaodi" unicode="&#58979;" d="M750.432-64.72000000000003l85.072 89.696-341.472 358.304L835.504 741.6l-85.072 89.68-341.872-358.304-85.056-89.696 85.056-89.68zM195.504 767.28h128v-768h-128z"  horiz-adv-x="1024" />

    
    <glyph glyph-name="duijitu" unicode="&#58980;" d="M812.864 66.76800000000003v192h128v-192h-128z m0 256.016V650.928h128v-328.144h-128z m-298.224-256V357.58399999999995h128v-290.8h-128z m0 354.8v52h128v-52h-128zM216.416 66.76800000000003V345.904h128v-279.136h-128z m0 343.152V807.92h128V409.92h-128z m128 0M128 0V896H0v-1024h1024v128H128z m0 0"  horiz-adv-x="1024" />

    
    <glyph glyph-name="qianjin" unicode="&#58992;" d="M344.56 831.28L259.504 741.6l341.472-358.32L259.504 24.960000000000036l85.056-89.68L686.432 293.6l85.072 89.68-85.072 89.68z"  horiz-adv-x="1024" />

    
    <glyph glyph-name="lishijilu" unicode="&#58993;" d="M512 896C229.232 896 0 666.768 0 384c0-282.768 229.232-512 512-512 282.768 0 512 229.232 512 512C1024 666.768 794.768 896 512 896z m0-896C300.256 0 128 172.25599999999997 128 384S300.256 768 512 768s384-172.256 384-384-172.256-384-384-384zM576 707.328h-128v-278.464l-31.68-31.696 31.68-31.68v-100.816h100.832l139.008-139.024 90.512 90.512L576 418.512z"  horiz-adv-x="1024" />

    
    <glyph glyph-name="leidatu" unicode="&#58994;" d="M1022.49701 411.989195C1008.362506 670.7913120000001 801.941196 878.283903 543.634745 894.225192V895.328451h-63.957028V894.241182C221.371266 878.283903 14.949955 670.7913120000001 0.815452 411.989195H0v-63.957029h1.375076C18.963259 92.66773899999998 223.817623-111.09935499999995 479.677717-126.89674100000002v-1.08727h63.957028v1.08727c255.860094 15.797386 460.714457 219.56448 478.302641 474.928907H1023.312462v63.957029h-0.815452z m-128.249832 0h-128.409725a254.053308 254.053308 0 0 1-31.035148 96.591103 63.397405 63.397405 0 0 1 9.577565 33.289633 63.957029 63.957029 0 0 1-63.957029 63.957029c-10.776759 0-20.770045-2.926034-29.692051-7.626876A254.165233 254.165233 0 0 1 543.634745 637.277829V765.97536c187.330138-15.541558 336.813703-166.160361 350.612433-353.986165zM479.677717 507.381103a127.962026 127.962026 0 0 1-92.689725-95.391908h-41.891853a64.1489 64.1489 0 0 1-18.771388 20.594163c19.043205 72.047593 78.906984 127.498337 153.336976 140.065893v-65.268148z m-134.565589-159.348937h43.762597A127.930047 127.930047 0 0 1 479.677717 259.94734800000003v-65.268148a192.286807 192.286807 0 0 0-151.786019 134.037943 64.276814 64.276814 0 0 1 17.22043 19.315023zM543.634745 259.94734800000003a127.962026 127.962026 0 0 1 90.802992 88.084818h65.635901A192.142904 192.142904 0 0 0 543.634745 194.67920000000004V259.94734800000003z m92.689724 152.041847A127.914058 127.914058 0 0 1 543.634745 507.381103v65.268148a190.591946 190.591946 0 0 0 73.054917-28.604781c-0.031979-0.735506-0.22385-1.423044-0.22385-2.15855a63.861093 63.861093 0 0 1 62.00634-63.765157 190.527989 190.527989 0 0 0 22.736723-66.115579h-64.884406zM479.677717 765.97536v-128.681542a255.828115 255.828115 0 0 1-218.205394-200.329403c-11.128523-5.59624-20.306357-14.246428-26.542167-24.97522H129.065284C142.864013 599.814999 292.347579 750.433802 479.677717 765.97536zM129.624908 348.03216599999996h105.305248a63.957029 63.957029 0 0 1 28.716706-26.158425c25.167091-101.307934 110.501757-178.647971 216.014865-191.839108v-128.681542c-184.883781 15.349687-332.960292 162.258982-350.036819 346.679075zM543.634745 1.3530909999999494v128.681542c114.435114 14.294396 205.158159 104.058086 221.08346 217.981544h128.969349C876.611027 163.612073 728.534516 16.702777999999967 543.634745 1.3530909999999494z"  horiz-adv-x="1024" />

    
    <glyph glyph-name="qianjindaodi" unicode="&#58995;" d="M280.56 831.28L195.504 741.6l341.472-358.32L195.504 24.960000000000036l85.056-89.68L622.432 293.6l85.072 89.68-85.072 89.68zM707.504 767.28h128v-768h-128z"  horiz-adv-x="1024" />

    
    <glyph glyph-name="sandiantu" unicode="&#58996;" d="M127.3052-0.6802800000000389v891.126651h-127.303808v-1018.430458h1018.430459v127.303807zM584.150825 606.6702720000001m-63.651903 0a63.651904 63.651904 0 1 1 127.303807 0 63.651904 63.651904 0 1 1-127.303807 0ZM800.965122 479.366465m-127.303807 0a127.303807 127.303807 0 1 1 254.607614 0 127.303807 127.303807 0 1 1-254.607614 0ZM331.532333 330.182315m-127.303808 0a127.303807 127.303807 0 1 1 254.607615 0 127.303807 127.303807 0 1 1-254.607615 0ZM594.430608 202.878508m-95.477856 0a95.477855 95.477855 0 1 1 190.955711 0 95.477855 95.477855 0 1 1-190.955711 0Z"  horiz-adv-x="1024" />

    
    <glyph glyph-name="quxiaoguanzhu" unicode="&#58997;" d="M956.592 724.16l42.912 42.784-90.8 90.512-51.568-51.392a297.568 297.568 0 0 1-137.072 33.552C639.472 839.616 566.4 791.408 512 739.216c-54.4 52.192-127.472 100.4-208.08 100.4C136.08 839.616 0 700.928 0 529.8399999999999c0-91.008 47.968-166.896 99.92-229.408 1.44-1.744 58.064-54.688 128.832-120.72l-69.152-68.928 90.8-90.512 72.176 71.952c96.928-90.336 188.816-175.872 188.816-175.872S917.088 293.76 921.04 297.77599999999995C982.56 360.352 1024 437.36 1024 529.8399999999999c0 73.632-25.312 141.168-67.408 194.32zM194.576 387.248c-45.696 56.096-66.144 100.272-66.144 142.592 0 100.224 78.736 181.776 175.504 181.776 32.832 0 76.208-23.552 119.024-64.624L512 561.552l89.056 85.44c42.8 41.072 86.192 64.624 119.024 64.624 13.024 0 25.68-1.584 37.904-4.384l-438.368-436.96c-61.904 57.744-110.24 102.928-125.04 116.976z m636.16 1.568c-17.712-16.656-177.44-165.328-319.296-297.328l-98 91.296 451.264 449.808a185.12 185.12 0 0 0 30.88-102.752c0-49.984-21.216-96.128-64.848-141.024z"  horiz-adv-x="1024" />

    
    <glyph glyph-name="daoxu" unicode="&#58998;" d="M263.28 517.392L493.328 796.736l230.048-279.344H263.28m-133.712-63.104h727.536L493.328 896 129.568 454.288zM493.328-128l363.776 441.712H129.568z"  horiz-adv-x="1024" />

    
    <glyph glyph-name="duoxuanweixuanzhong" unicode="&#58999;" d="M512 768c211.744 0 384-172.256 384-384S723.744 0 512 0 128 172.25599999999997 128 384 300.256 768 512 768m0 128C229.232 896 0 666.768 0 384s229.232-512 512-512 512 229.232 512 512S794.768 896 512 896z"  horiz-adv-x="1024" />

    
    <glyph glyph-name="duoxuanxuanzhong" unicode="&#59000;" d="M512 768c211.744 0 384-172.256 384-384S723.744 0 512 0 128 172.25599999999997 128 384 300.256 768 512 768m0 128C229.232 896 0 666.768 0 384s229.232-512 512-512 512 229.232 512 512S794.768 896 512 896zM512 384m-192 0a192 192 0 1 1 384 0 192 192 0 1 1-384 0Z"  horiz-adv-x="1024" />

    
    <glyph glyph-name="danxuanweixuanzhong" unicode="&#59001;" d="M896 768v-768H128V768h768m128 128H0v-1024h1024V896z"  horiz-adv-x="1024" />

    
    <glyph glyph-name="paixu" unicode="&#59002;" d="M509.328-128l363.776 441.712H145.568zM509.328 896L145.568 454.288h727.536z"  horiz-adv-x="1024" />

    
    <glyph glyph-name="zhengxu" unicode="&#59003;" d="M723.392 250.60799999999995L493.328-28.73599999999999 263.28 250.60799999999995h460.112m133.712 63.104H129.568L493.328-128l363.776 441.712zM493.328 896L129.568 454.288h727.536z"  horiz-adv-x="1024" />

    
    <glyph glyph-name="danxuanxuanzhong" unicode="&#59004;" d="M0 896v-1024h1024V896H0z m128-896V768h768v-83.456l-438.576-438.56-208.08 208.064-90.496-90.496L457.424 64.96000000000004 896 503.552V0H128z"  horiz-adv-x="1024" />

    
    <glyph glyph-name="yuanshibili" unicode="&#59005;" d="M0 896v-1024h1024V896H0z m896-896H128V768h768v-768zM205.744 640h128v-512h-128zM689.744 640h128v-512h-128zM512 517.328m-64 0a64 64 0 1 1 128 0 64 64 0 1 1-128 0ZM512 253.32799999999997m-64 0a64 64 0 1 1 128 0 64 64 0 1 1-128 0Z"  horiz-adv-x="1024" />

    
    <glyph glyph-name="zhong" unicode="&#59006;" d="M0 896v-1024h1024V896H0z m128-384h421.488L128 90.51199999999994V512z m90.512-512L640 421.488V0H218.512zM896 0h-128V640H128V768h768v-768z"  horiz-adv-x="1024" />

    
    <glyph glyph-name="xiao" unicode="&#59007;" d="M0 896v-1024h1024V896H0z m128-512h307.728L128 76.27200000000005V384z m104.752-384L512 279.24800000000005V0H232.752zM896 0H640V512H128V768h768v-768z"  horiz-adv-x="1024" />

    
    <glyph glyph-name="zongzhitu" unicode="&#59009;" d="M512 896C229.68 896 0 666.3199999999999 0 384s229.68-512 512-512 512 229.68 512 512S794.32 896 512 896z m0-896C300.272 0 128 172.27200000000005 128 384a382.16 382.16 0 0 0 91.744 248.672l231.024-231.024A63.2 63.2 0 0 1 448 384a64 64 0 1 1 64 64c-5.232 0-10.24-0.8-15.104-1.984l-117.936 117.936A222.192 222.192 0 0 0 512 608c123.52 0 224-100.48 224-224s-100.48-224-224-224v-64c158.8 0 288 129.2 288 288s-129.2 288-288 288a285.696 285.696 0 0 1-178.736-62.352l-68.16 68.16A382.272 382.272 0 0 0 512 768c211.728 0 384-172.272 384-384S723.728 0 512 0z"  horiz-adv-x="1024" />

    
    <glyph glyph-name="zhibiaotu" unicode="&#59010;" d="M1.584 852.592h897.76v-192H1.584zM1.584 532.592h641.248v-192H1.584zM59.136-18.128000000000043V171.84000000000003H36.992c-16.736 0-25.584 8.848-26.544 26.512 0.976 14.72 9.808 23.04 26.544 25.024h53.12c15.728-0.976 24.096-9.824 25.088-26.496v-215.008c-0.992-17.664-10.336-26.496-28.032-26.496-18.704 0-28.032 8.816-28.032 26.496zM197.84-18.128000000000043V171.84000000000003h-22.144c-16.736 0-25.584 8.848-26.544 26.512 0.976 14.72 9.808 23.04 26.544 25.024h53.12c15.712-0.992 24.096-9.824 25.072-26.496v-215.008c-0.992-17.664-10.336-26.496-28.032-26.496-18.688 0-28.016 8.816-28.016 26.496zM321.776-79.96799999999996c-4.944-5.888-11.808-9.792-20.672-11.776-14.752 1.984-22.608 10.32-23.6 25.024 0 2.96 0.496 6.896 1.472 11.776 0 1.984 0.48 2.96 1.472 2.96l31.008 53.008c3.904 6.864 11.296 11.264 22.128 13.248 14.752-1.984 23.088-10.32 25.072-25.024 0-2.96-0.992-6.896-2.96-11.776l-1.472-2.96-32.448-54.48zM481.136 5.440000000000055h67.872c18.672-0.992 28.512-9.328 29.504-25.024-0.992-16.704-9.84-25.024-26.544-25.024h-126.912c-18.688 0-28.032 8.336-28.032 25.024-0.992 4.912 1.488 11.28 7.376 19.136 7.856 8.848 15.728 17.664 23.616 26.512 32.464 34.352 56.08 62.816 70.832 85.408 8.864 11.776 13.28 23.568 13.28 35.344-1.984 17.664-10.848 27.488-26.56 29.456-15.744 0-27.056-11.296-33.936-33.872-5.904-18.656-14.272-27.488-25.072-26.496-18.704 0-28.032 8.832-28.032 26.496 4.912 50.08 34.416 78.544 88.528 85.424 53.104-3.936 81.136-29.968 84.096-78.048 0-27.504-22.128-66.272-66.384-116.336a1295.36 1295.36 0 0 1-23.632-28zM718.672 14.272000000000048H627.2c-16.752 0-25.6 7.36-26.56 22.096-1.008 5.888 0.976 11.776 5.888 17.664l84.112 151.664c6.88 14.736 19.664 22.096 38.352 22.096 28.528-1.984 43.28-17.664 44.272-47.12v-116.336h5.904c15.712-1.968 24.576-10.304 26.56-25.024-1.984-15.712-10.848-24.064-26.56-25.024h-5.904v-32.4c0-17.664-9.36-26.496-28.032-26.496-18.704 0-27.552 8.832-26.56 26.496v32.384z m0 50.064v104.56h-1.472l-50.176-104.56h51.648zM910.496 124.72000000000003a66.592 66.592 0 0 0 23.616 4.416c48.192-4.928 74.752-33.392 79.68-85.408-5.904-56.96-37.888-86.896-95.904-89.824-59.024 1.952-90.512 31.888-94.432 89.824 2.96 52.016 34.912 109.456 95.904 172.304 2.96 2.944 6.88 6.368 11.792 10.32 3.92 0.96 7.872 1.472 11.808 1.472 14.752-3.936 23.616-12.768 26.56-26.512a35.2 35.2 0 0 0-7.376-16.192c-5.904-6.896-12.32-14.256-19.184-22.096-16.736-18.672-27.552-31.456-32.464-38.304z m7.376-41.232c-22.64-1.984-34.448-15.232-35.424-39.76 0.976-24.544 12.784-37.328 35.424-38.304 22.608 0.976 34.896 13.744 36.88 38.304-1.984 24.528-14.256 37.776-36.88 39.76z"  horiz-adv-x="1024" />

    
    <glyph glyph-name="qianbi" unicode="&#59011;" d="M64 118.30399999999997V-64h183.264l475.168 477.232-180.72 179.216zM623.424 672.656l158.4 158.4L960 652.864l-158.4-158.4z"  horiz-adv-x="1024" />

    
    <glyph glyph-name="da" unicode="&#59012;" d="M0 896v-1024h1024V896H0z m805.504-128l-120-128H256v-128h301.504L128 90.49599999999998V768h677.504zM218.496 0L640 429.504V128h128V557.504l128 120V0H218.496z"  horiz-adv-x="1024" />

    
    <glyph glyph-name="xiajiang" unicode="&#59014;" d="M786.736 330.032L576 119.296V893.728h-128v-774.432L237.264 330.032l-90.528-90.496L512-125.728l365.264 365.264z"  horiz-adv-x="1024" />

    
    <glyph glyph-name="shangsheng" unicode="&#59015;" d="M883.072 526.832L517.824 892.096 152.56 526.832l90.512-90.496 210.752 210.736v-774.416h128V647.072l210.736-210.736z"  horiz-adv-x="1024" />

    
    <glyph glyph-name="w" unicode="&#58897;" d="M913.664 707.669333L750.336 870.997333 725.333333 896v-128a85.333333 85.333333 0 0 1 85.333334-85.333333h128l-25.002667 25.002666zM853.333333 682.666667h-42.666666a85.333333 85.333333 0 0 0-85.333334 85.333333V896H128a85.333333 85.333333 0 0 1-85.333333-85.333333v-853.333334a85.333333 85.333333 0 0 1 85.333333-85.333333h725.333333a85.333333 85.333333 0 0 1 85.333334 85.333333V682.666667h-85.333334z m-224.085333-533.333334H564.906667l-80.469334 305.621334h-2.218666L401.792 149.333333H336.896L223.189333 545.365333H291.413333l77.098667-308.394666h2.218667l80.981333 308.394666h63.232l80.938667-308.394666h2.261333l77.098667 308.394666h68.266666L629.248 149.333333z"  horiz-adv-x="1024" />

    
    <glyph glyph-name="x" unicode="&#59016;" d="M913.664 707.669333L750.336 870.997333 725.333333 896v-128a85.333333 85.333333 0 0 1 85.333334-85.333333h128l-25.002667 25.002666zM853.333333 682.666667h-42.666666a85.333333 85.333333 0 0 0-85.333334 85.333333V896H128a85.333333 85.333333 0 0 1-85.333333-85.333333v-853.333334a85.333333 85.333333 0 0 1 85.333333-85.333333h725.333333a85.333333 85.333333 0 0 1 85.333334 85.333333V682.666667h-85.333334z m-259.157333-533.333334l-105.898667 156.970667L382.293333 149.333333H308.522667l142.549333 204.629334-133.12 191.36h73.770667l96.512-143.104 96.512 143.104h73.770666l-134.229333-191.36 143.658667-204.629334h-73.770667z"  horiz-adv-x="1024" />

    
    <glyph glyph-name="p" unicode="&#59017;" d="M913.664 707.669333L750.336 870.997333 725.333333 896v-128a85.333333 85.333333 0 0 1 85.333334-85.333333h128l-25.002667 25.002666zM810.666667 682.666667a85.333333 85.333333 0 0 0-85.333334 85.333333V896H128a85.333333 85.333333 0 0 1-85.333333-85.333333v-853.333334a85.333333 85.333333 0 0 1 85.333333-85.333333h725.333333a85.333333 85.333333 0 0 1 85.333334 85.333333V682.666667h-128zM344.618667 545.365333h164.181333c94.293333 0 141.482667-40.149333 141.482667-120.362666 0-80.981333-47.530667-121.472-142.592-121.472H405.077333V149.333333H344.618667V545.365333z m60.458666-51.584v-138.666666h98.730667c29.952 0 51.797333 5.546667 65.450667 16.64 13.653333 11.477333 20.48 29.226667 20.48 53.248 0 24.789333-6.997333 42.154667-21.077334 52.138666-13.653333 11.093333-35.285333 16.64-64.896 16.64H405.077333z"  horiz-adv-x="1024" />

    
    <glyph glyph-name="pdf" unicode="&#59018;" d="M913.664 707.669333L750.336 870.997333 725.333333 896v-128a85.333333 85.333333 0 0 1 85.333334-85.333333h128l-25.002667 25.002666zM464.896 546.474667h-3.925333c-1.28 0-3.968 0-5.248-1.28-5.205333-22.186667-1.322667-45.653333 7.850666-66.517334a110.208 110.208 0 0 1 1.322667 67.797334zM291.541333 155.477333l3.925334 1.28c18.218667 6.528 32.554667 19.498667 42.965333 36.522667a102.741333 102.741333 0 0 1-46.890667-37.802667zM473.984 357.504l-1.322667-2.645333-1.28 1.322666a1059.413333 1059.413333 0 0 0-39.125333-88.618666l2.602667 1.237333v-2.602667c29.013333 10.410667 58.581333 19.157333 88.661333 26.069334l-1.237333 1.28h3.925333a394.965333 394.965333 0 0 0-52.224 63.957333zM651.264 288.426667c-11.733333 0-22.186667 0-33.877333-2.602667 13.056-6.485333 26.026667-9.173333 39.082666-10.496 9.130667-1.237333 18.304 0 26.026667 2.688 0 3.84-5.162667 10.410667-31.232 10.410667zM853.333333 682.666667h-42.666666a85.333333 85.333333 0 0 0-85.333334 85.333333V896H128a85.333333 85.333333 0 0 1-85.333333-85.333333v-853.333334a85.333333 85.333333 0 0 1 85.333333-85.333333h725.333333a85.333333 85.333333 0 0 1 85.333334 85.333333V682.666667h-85.333334z m-196.864-446.421334a166.4 166.4 0 0 0-96.469333 39.082667c-53.418667-11.648-104.234667-28.586667-155.050667-49.493333-40.405333-71.68-78.208-108.16-110.805333-108.16-6.528 0-14.336 1.237333-19.584 5.205333a38.4 38.4 0 0 0-22.101333 35.242667c0 11.690667 2.602667 44.288 126.421333 97.706666a928.085333 928.085333 0 0 1 69.077333 161.621334c-15.616 31.274667-49.536 108.16-26.069333 147.285333 7.850667 14.336 23.466667 22.186667 40.405333 20.906667 13.312-0.170667 25.770667-6.4 33.877334-16.938667 16.938667-23.466667 15.616-72.96-6.442667-146.005333a392.618667 392.618667 0 0 1 80.810667-104.277334c27.349333 5.205333 54.741333 9.130667 82.133333 9.130667 61.269333-1.28 70.4-29.994667 69.077333-46.848-0.128-44.458667-43.178667-44.458667-65.28-44.458667z"  horiz-adv-x="1024" />

    
    <glyph glyph-name="ps" unicode="&#59019;" d="M956.330667 707.669333L793.002667 870.997333 768 896v-128a85.333333 85.333333 0 0 1 85.333333-85.333333h128l-25.002666 25.002666zM853.333333 682.666667a85.333333 85.333333 0 0 0-85.333333 85.333333V896H170.666667a85.333333 85.333333 0 0 1-85.333334-85.333333v-853.333334a85.333333 85.333333 0 0 1 85.333334-85.333333h725.333333a85.333333 85.333333 0 0 1 85.333333 85.333333V682.666667h-128zM295.978667 527.104h138.922666c79.786667 0 119.68-33.962667 119.68-101.845333 0-68.522667-40.192-102.784-120.618666-102.784H347.136V192H295.978667V527.104z m51.157333-43.648v-117.333333h83.541333c25.344 0 43.818667 4.693333 55.381334 14.08 11.562667 9.685333 17.365333 24.704 17.365333 45.056 0 20.949333-5.930667 35.669333-17.834667 44.117333-11.562667 9.386667-29.866667 14.08-54.912 14.08H347.136zM791.082667 364.672h-48.341334c-3.754667 13.141333-9.557333 22.229333-17.322666 27.221333-8.490667 5.632-21.333333 8.448-38.485334 8.448-15.658667 0-26.922667-2.176-33.792-6.570666a22.869333 22.869333 0 0 1-13.141333-21.546667c0-8.149333 6.528-15.317333 19.669333-21.589333 8.149333-3.456 24.405333-8.277333 48.853334-14.506667 27.221333-6.570667 47.701333-14.250667 61.482666-22.997333 19.370667-12.245333 29.098667-29.141333 29.098667-50.688 0-51.285333-36.010667-76.970667-107.946667-76.970667-66.346667 0-102.272 28.330667-107.946666 84.906667h48.853333c2.816-16.256 8.576-27.818667 17.322667-34.688 8.789333-6.272 22.229333-9.386667 40.405333-9.386667 38.741333 0 58.154667 10.922667 58.154667 32.853333 0 11.904-7.168 21.12-21.589334 27.690667-7.509333 3.754667-23.808 8.448-48.853333 14.037333-28.757333 6.570667-48.810667 13.653333-60.074667 21.162667-18.730667 11.861333-28.117333 28.16-28.117333 48.810667 0 22.229333 9.045333 39.424 27.221333 51.626666 18.176 12.501333 41.898667 18.773333 71.338667 18.773334 63.189333-0.085333 97.578667-25.557333 103.210667-76.586667z"  horiz-adv-x="1024" />

    
    <glyph glyph-name="ai" unicode="&#59020;" d="M956.330667 707.669333L793.002667 870.997333 768 896v-128a85.333333 85.333333 0 0 1 85.333333-85.333333h128l-25.002666 25.002666zM853.333333 682.666667a85.333333 85.333333 0 0 0-85.333333 85.333333V896H170.666667a85.333333 85.333333 0 0 1-85.333334-85.333333v-853.333334a85.333333 85.333333 0 0 1 85.333334-85.333333h725.333333a85.333333 85.333333 0 0 1 85.333333 85.333333V682.666667h-128zM434.816 527.104h58.197333L622.08 192h-54.912l-31.402667 86.314667H391.68L360.192 192H305.792l129.024 335.104z m-27.690667-206.506667h113.109334l-55.381334 151.594667h-1.877333l-55.850667-151.594667zM710.314667 522.410667a30.72 30.72 0 0 0 9.813333-23.936c0-9.386667-3.413333-17.536-10.282667-24.405334-6.869333-6.229333-15.061333-9.386667-24.405333-9.386666s-17.536 3.114667-24.362667 9.386666a33.152 33.152 0 0 0-9.856 24.405334c0 9.984 3.285333 17.962667 9.856 23.936a32.938667 32.938667 0 0 0 24.362667 9.386666c10.368-0.042667 18.645333-3.157333 24.874667-9.386666z m-49.749334-87.765334h49.749334V192h-49.749334v242.645333z"  horiz-adv-x="1024" />

    
    <glyph glyph-name="jpg" unicode="&#59021;" d="M956.330667 707.669333L793.002667 870.997333 768 896v-128a85.333333 85.333333 0 0 1 85.333333-85.333333h128l-25.002666 25.002666zM896 682.666667h-42.666667a85.333333 85.333333 0 0 0-85.333333 85.333333V896H170.666667a85.333333 85.333333 0 0 1-85.333334-85.333333v-853.333334a85.333333 85.333333 0 0 1 85.333334-85.333333h725.333333a85.333333 85.333333 0 0 1 85.333333 85.333333V682.666667h-85.333333z m-405.333333-112a64 64 0 1 0 0.042666-127.957334 64 64 0 0 0-0.042666 127.957334zM272 170.666667l136.618667 211.029333 147.072-79.146667 101.504 171.648L826.666667 170.666667h-554.666667z"  horiz-adv-x="1024" />

    
    <glyph glyph-name="yincang" unicode="&#59022;" d="M512 190.272c105.872 0 192 86.128 192 192 0 30.048-7.136 58.384-19.488 83.728l258.784 258.784-90.512 90.512-129.904-129.904A547.76 547.76 0 0 1 512 727.44c-231.744 0-430.032-142.816-511.968-345.168a553.152 553.152 0 0 1 183.36-236.368l-54.688-54.688 90.512-90.512L428.272 209.76A190.496 190.496 0 0 1 512 190.272z m35.696 138.912l17.392 17.392a64.704 64.704 0 0 0-17.392-17.392zM141.664 382.256C216 515.728 356.24 599.44 512 599.44c37.936 0 74.848-5.264 110.208-14.72l-28.8-28.8A190.688 190.688 0 0 1 512 574.272c-105.872 0-192-86.128-192-192 0-29.12 6.704-56.64 18.368-81.408l-63.536-63.536a422.64 422.64 0 0 0-133.168 144.928zM932.208 532.848L841.6 442.24a424.848 424.848 0 0 0 40.736-59.968A421.904 421.904 0 0 0 568.16 168.8l-126.864-126.864c23.184-2.976 46.704-4.848 70.688-4.848 231.744 0 430.032 142.8 511.968 345.168a551.744 551.744 0 0 1-91.744 150.592z"  horiz-adv-x="1024" />

    
    <glyph glyph-name="shouqi-copy" unicode="&#59023;" d="M512 528.752L838.512 202.24 1019.5360000000001 202.24000000000012 511.9999999999999 709.76l-507.53599999999983-507.5200000000001L185.488 202.23999999999978z"  horiz-adv-x="1024" />

    
    <glyph glyph-name="yibiaopanxiala" unicode="&#59024;" d="M512 768c211.744 0 384-172.256 384-384S723.744 0 512 0 128 172.256 128 384 300.256 768 512 768m0 128C229.232 896 0 666.768 0 384s229.232-512 512-512c282.768 0 512 229.232 512 512S794.768 896 512 896zM512 140.288l-323.568 322.72 90.384 90.624L512 321.072l233.184 232.56 90.384-90.624z"  horiz-adv-x="1024" />

    
    <glyph glyph-name="xinjian-copy" unicode="&#59025;" d="M149.9613280324877 746.0386719675123C-49.98584227006995 546.0915016649546-49.985842270070066 221.90849833504535 149.96132803248764 21.9613280324877s524.130173632467-199.9471703025577 724.0773439350246-5.684341886080802e-14c199.94717030255765 199.94717030255762 199.9471703025577 524.130173632467 5.684341886080802e-14 724.0773439350246S349.9084983350454 945.9858422700701 149.9613280324877 746.0386719675123z m633.5676759431465-633.5676759431466C633.8033857000698-37.25462225119861 390.19661429993005-37.25462225119861 240.47099602436572 112.47099602436583S90.74537774880139 505.80338570006995 240.47099602436577 655.5290039756343s393.33238967570423 149.72561827556427 543.0580079512686-5.684341886080802e-14 149.72561827556427-393.33238967570423-5.684341886080802e-14-543.0580079512686zM447.99835102124325 639.9952822065281L447.9983510212432 448.0016489787568l-191.99363322777137 2.842170943040401e-14 0-128.00329795751358L447.9983510212432 319.99835102124325l-2.842170943040401e-14-191.99363322777137 128.00329795751358 0L576.0016489787567 319.99835102124325l191.99363322777137-2.842170943040401e-14 0 128.00329795751358L576.0016489787567 448.00164897875675l2.842170943040401e-14 191.99363322777137z"  horiz-adv-x="1024" />

    
    <glyph glyph-name="yuan" unicode="&#59026;" d="M512 384m-512 0a512 512 0 1 1 1024 0 512 512 0 1 1-1024 0Z"  horiz-adv-x="1024" />

    
    <glyph glyph-name="fangxing" unicode="&#59027;" d="M1024 32c0-88.368-71.648-160-160.032-160H160.032C71.648-128 0-56.368 0 32V736C0 824.368 71.648 896 160.032 896h703.936C952.352 896 1024 824.368 1024 736v-704z"  horiz-adv-x="1024" />

    
    <glyph glyph-name="chaosong" unicode="&#59028;" d="M896.512 896h-643.52v-128H0v-896h1024V767.696L896.512 896zM128.496 0V640h124.48v-640h-124.48z m767.008 0H382.16V223.632h199.952l-117.584-117.12L555.392 16 737.12 197.024l26.72 26.624h3.152v3.136l60.992 60.752-60.992 60.752v3.344h-3.36l-26.512 26.4-181.728 181.024-90.864-90.512 117.376-116.912H382.16V768h460.736l52.608-52.928V0z"  horiz-adv-x="1024" />

    
    <glyph glyph-name="yijiao" unicode="&#59029;" d="M963.248 224.112h-3.36l-26.4 26.4-181.024 181.024-90.496-90.512 116.912-116.912H451.248v-128h327.84l-117.12-117.136 90.496-90.512 181.024 181.024 26.624 26.624h3.136v3.136L1024 160l-60.752 60.752zM0 896v-1024h610.672v128H128V768h768v-385.6h128V896zM205.008 640h640v-128h-640zM205.008 384H384v-128H205.008z"  horiz-adv-x="1024" />

    
    <glyph glyph-name="tiaoshi" unicode="&#59030;" d="M944.031115 339.280522a270.943746 270.943746 0 0 1-193.087819 80.175925c-50.511953 0-97.695908-14.079987-138.31987-38.159964l-103.519903 103.775902a272.319745 272.319745 0 0 1 36.991965 137.215872C546.111488 773.232115 423.583603 896.016 273.039744 896v-127.85588c80.223925-0.032 145.471864-65.455939 145.487864-145.871863a144.991864 144.991864 0 0 0-42.59196-103.119904 144.351865 144.351865 0 0 0-102.879904-42.71996c-80.255925 0-145.503864 65.439939-145.503864 145.855864L0 622.272257a273.215744 273.215744 0 0 1 80.079925-193.423819c49.439954-49.567954 117.71189-80.271925 192.975819-80.271925 53.37595 0 104.351902 15.391986 148.095861 43.823959l99.711907-99.951906a272.271745 272.271745 0 0 1-42.94396-146.719863 272.207745 272.207745 0 0 1 79.967925-193.551818A270.879746 270.879746 0 0 1 750.959296-127.99904l-0.016 127.87188a144.239865 144.239865 0 0 0-102.863904 42.70396 144.991864 144.991864 0 0 0-42.60796 103.135903c0 80.415925 65.279939 145.855863 145.487864 145.871864 38.863964 0 75.407929-15.167986 102.895904-42.71996a144.959864 144.959864 0 0 0 42.59196-103.119904l127.55188-0.032a272.271745 272.271745 0 0 1-79.967925 193.567819z"  horiz-adv-x="1024" />

    
    <glyph glyph-name="yizhi" unicode="&#59031;" d="M1024 320v128H475.584l117.024 118.512-90.512 91.264-271.52-271.152 90.496-90.32 181.024-180.928 90.512 89.056L475.584 320zM896 576V896H0v-1024h896V192h-128v-192H128V768h640v-192z"  horiz-adv-x="1024" />

    
    <glyph glyph-name="xuanzhong1-copy" unicode="&#59032;" d="M768 768H256C192 768 128 704 128 640v-512c0-64 64-128 128-128h512c64 0 128 64 128 128V640c0 64-64 128-128 128z m-323.904-564.992L263.104 384l45.248 45.248 135.744-135.744 271.488 271.488 45.248-45.248-316.736-316.736z"  horiz-adv-x="1024" />

    
    <glyph glyph-name="weixuanzhong-copy" unicode="&#59033;" d="M768 704c28.672 0 64-35.264 64-64v-512c0-28.672-35.328-64-64-64H256c-28.736 0-64 35.328-64 64V640c0 28.736 35.264 64 64 64h512m0 64H256C192 768 128 704 128 640v-512c0-64 64-128 128-128h512c64 0 128 64 128 128V640c0 64-64 128-128 128z"  horiz-adv-x="1024" />

    
    <glyph glyph-name="duihao" unicode="&#59008;" d="M932.976 753.776L375.472 196.272 91.024 480.704 0 389.696l284.448-284.448 91.024-91.024 91.024 91.024L1024 662.752z"  horiz-adv-x="1024" />

    
    <glyph glyph-name="kongzhitu" unicode="&#59013;" d="M128.16 1.0080000000000382V895.344H0.4v-1022.096h1022.096v127.76H128.16z m0 0M708.528 421.808l278.768 162.256-64.384 110.624-226.8-132-243.776 95.264-0.096 0.16-0.112-0.08-0.176 0.08-0.08-0.224L171.36 494.624 235.76 384l227.344 132.32 242.832-94.912 0.48-0.832 0.656 0.384 0.976-0.384zM708.528 163.13599999999997l278.768 162.256-64.384 110.624-226.8-132-243.776 95.28-0.096 0.144-0.112-0.064-0.176 0.064-0.08-0.224L171.36 235.96799999999996l64.4-110.64 227.344 132.32 242.832-94.912 0.48-0.816 0.656 0.384 0.976-0.384z"  horiz-adv-x="1025" />

    
    <glyph glyph-name="zongzhitu1" unicode="&#59034;" d="M512 764.704c-282.768 0-512-229.232-512-512 0-58.432 9.92-114.528 27.952-166.832h138.224A381.696 381.696 0 0 0 128 252.70399999999995c0 211.744 172.256 384 384 384 120.512 0 228.16-55.84 298.624-142.96l-68.544-68.544c-52.592 69.968-136.016 115.504-230.08 115.504-158.8 0-288-129.2-288-288 0-62.192 20.032-119.696 53.68-166.832h85.36C317.12 126.91200000000003 288 186.39999999999998 288 252.70399999999995c0 123.52 100.48 224 224 224 76.432 0 143.984-38.544 184.432-97.152L528.368 211.48800000000006A63.52 63.52 0 0 1 512 213.87199999999996a64 64 0 1 1 64-64c0 5.696-0.976 11.12-2.384 16.368l152.432 152.432A223.04 223.04 0 0 0 736 252.70399999999995c0-66.304-29.12-125.776-75.04-166.832h85.36a286.16 286.16 0 0 1 29.296 282.368l71.552 71.552A381.648 381.648 0 0 0 896 252.70399999999995a381.76 381.76 0 0 0-38.176-166.832h138.224A510.88 510.88 0 0 1 1024 252.70399999999995c0 282.768-229.232 512-512 512z"  horiz-adv-x="1024" />

    
    <glyph glyph-name="shujufenxi" unicode="&#59035;" d="M960 888.992H64a64 64 0 0 1-64-64v-640a64 64 0 0 1 64-64h384V0H128v-128h768v128H576v120.992h384a64 64 0 0 1 64 64v640a64 64 0 0 1-64 64z m-64-640H128v512h768v-512zM259.872 316.208l-96.064 84.592 212.64 241.504 214.528-154.256 189.216 211.552 95.392-85.312-265.904-297.344-213.808 153.744z"  horiz-adv-x="1024" />

    
    <glyph glyph-name="piliangtianjia" unicode="&#59036;" d="M256 896v-192h128V768h512v-512h-64v-128h192V896zM256 640H0v-768h768V640H256z m384-640H128V512h512v-512zM576 320h-128v128h-128v-128h-128v-128h128v-128h128v128h128z"  horiz-adv-x="1024" />

    
    <glyph glyph-name="erweima-" unicode="&#59037;" d="M562.896 317.728h128v-128h-128zM562.896 153.968h262.016v-128H562.896zM1024-7.04V317.728H820.976v-128h82.544V-7.04H568.736v-120.48H1024v120.48zM0 448h448V896H0v-448zM128 768h192v-192H128V768zM576 896v-448h448V896H576z m320-320H704V768h192v-192zM0-128h448V320H0v-448z m128 320h192v-192H128V192z"  horiz-adv-x="1024" />

    
    <glyph glyph-name="wancheng" unicode="&#59038;" d="M512 896a512 512 0 1 0 0-1024A512 512 0 0 0 512 896zM760.896 519.744L444.16 203.008 263.104 384l45.248 45.248 135.744-135.744 271.488 271.488 45.312-45.248z"  horiz-adv-x="1024" />

    
    <glyph glyph-name="dengdai" unicode="&#59039;" d="M512 896a512 512 0 1 0 0-1024A512 512 0 0 0 512 896zM544 416v256h-64v-320h320v64z"  horiz-adv-x="1024" />

    
    </font>
</defs>
</svg>
